<svg xmlns="http://www.w3.org/2000/svg" width="100" height="100" viewBox="0 0 100 100"><path fill="#93D3E8" d="M50 0c27.614 0 50 22.386 50 50s-22.386 50-50 50-50-22.386-50-50 22.386-50 50-50z"/><path fill="#B7844E" d="M83 87.547c-8.806 7.746-20.35 12.453-33 12.453-12.649 0-24.193-4.707-33-12.453v-75.094c8.807-7.746 20.351-12.453 33-12.453 12.65 0 24.194 4.707 33 12.453v75.094z"/><g fill="#CC9357"><path d="M47.325 84.329c1.661.323 3.093 2.092 4.786 5.913.758 1.709 1.677 4.33 2.839 7.647l.629 1.789c.912-.102 1.816-.228 2.714-.378-.402.067-.804.133-1.208.19-.298-.845-.59-1.682-.869-2.483-1.67-4.797-3.111-8.94-4.51-10.906-2.918-4.105-6.062-6.338-8.403-5.97-1.661.261-2.962 1.832-3.866 4.672-1.04 3.268.279 8.693 2.606 14.552 1.738.279 3.504.475 5.297.568-1.957-4.229-3.237-7.911-2.63-9.385.458-1.114 1.188-1.191 1.581-1.135 2.213.307 5.152 7.294 6.186 10.533.984-.049 1.958-.134 2.927-.238-.374.039-.75.074-1.127.106l-.525-1.493c-1.152-3.291-2.063-5.89-2.8-7.553-1.445-3.26-2.71-4.954-3.867-5.179-1.058-.208-2.317.767-3.885 2.292-1.294 1.258-.225 6.012 2.163 11.905-.474-.044-.944-.099-1.413-.155-2.355-5.998-3.35-11-1.635-12.666 1.906-1.851 3.408-2.935 5.01-2.626zM66.248 97.285c-5.978-7.109-12.104-12.918-17.02-17.545-2.88-2.711-5.367-5.052-7.173-7.047-4.606-5.088-7.628-12.234-11.128-20.51-3.554-8.405-7.518-17.755-13.927-26.399v5.321c3.968 5.317 7.477 11.215 10.179 17.625 4.203 9.971 5.523 20.149 6.8 29.992.881 6.793 1.761 13.384 3.509 19.683 1.345.347 2.709.64 4.095.875l-.994-.178c-2.238-5.853-3.448-11.275-2.361-14.687 1.062-3.338 2.705-5.202 4.88-5.543 2.871-.447 6.384 1.914 9.635 6.488 1.503 2.115 2.902 6.136 4.674 11.227.304.873.621 1.779.947 2.702 1.203-.203 2.392-.445 3.564-.732l-1.04.239c.068-.525.198-.982.413-1.334.451-.737 1.21-1.039 2.134-.854.465.094 1.025.478 1.646 1.06.499-.157.993-.322 1.485-.495l-.318.112zM50.664 68.611c7.369 3.744 15.339 13.244 20.101 18.92.56.667 1.106 1.32 1.594 1.889l-.155-.324c-5.098-10.58-22.709-26.452-27.993-27.59-.58-.124-.77-.012-.813.025-.402.338-.582.814-.551 1.455.159 3.251 5.537 9.306 12.508 14.083 4.645 3.183 11.116 10.993 16.391 17.952 2.1-1.018 4.119-2.172 6.043-3.462-6.02-12.21-14.239-21.968-21.173-27.202-.983-.742-1.987-1.487-3.007-2.245-9.629-7.155-20.543-15.266-29.646-31.43-2.04-3.622-4.44-6.928-6.962-9.906v2.899c7.107 9.131 11.329 19.097 15.098 28.011 3.454 8.168 6.438 15.224 10.898 20.15 1.771 1.957 4.242 4.282 7.103 6.974 5.031 4.736 11.321 10.693 17.437 18.014 1.021-.383 2.025-.8 3.014-1.247-5.199-6.838-11.492-14.425-15.912-17.455-7.509-5.145-12.879-11.343-13.063-15.073-.051-1.037.296-1.899 1.003-2.494.442-.371 1.08-.47 1.897-.294 6.008 1.293 23.982 18.135 28.87 28.28 1.358 2.82 1.503 3.426.905 3.814-.714.462-1.213-.133-4.46-4.004-4.391-5.234-12.564-14.977-19.702-18.604-.313-.159-.438-.543-.28-.856.16-.313.543-.439.855-.28zM62.383 98.13c-.061.099-.11.218-.152.349.733-.185 1.461-.386 2.181-.603l-.735.215c-.179-.114-.348-.202-.494-.231-.497-.102-.678.07-.8.27zM41.851 1.82c4.051 1.727 8.694 1.063 12.653-1.608.624.056 1.243.127 1.86.205-2.975 2.367-6.408 3.636-9.794 3.636-1.778 0-3.542-.347-5.217-1.06-1.205-.513-2.163-1.059-2.927-1.632.391-.093.784-.178 1.178-.264-2.286.485-4.514 1.125-6.673 1.91 2.112 1.506 3.942 3.349 5.489 5.816.707 1.128 2.072 4.679 3.962 9.595 5.676 14.766 17.478 45.498 26.136 44.61 2.898-.295 4.85-1.725 5.799-4.247 2.236-5.944-1.612-17.439-8.237-24.601-5.48-5.926-12.301-9.568-14.896-7.954-1.627 1.012-1.525 4.207.285 8.997 4.991 13.204 10.327 21.137 14.641 21.764 1.611.234 3.082-.555 4.492-2.414 2.034-2.684 1.018-6.354-.194-8.959-3.219-6.922-10.645-13.217-13.427-13.351-.534-.026-.66.191-.715.285-1.411 2.405.733 10.985 4.608 15.804 1.371 1.706 3.494 3.576 5.827 2.805 1.023-.339 1.602-.925 1.768-1.792.486-2.553-2.594-7.122-5.774-9.788-1.735-1.455-2.689-1.647-2.95-1.546-.612.236-.679 1.549-.16 3.192.924 2.933 3.304 5.859 5.24 5.377.459-.115.749-.283.775-.449.117-.735-1.987-2.63-3.949-3.871-.297-.188-.386-.581-.198-.879.187-.298.58-.387.876-.199 1.14.721 4.834 3.222 4.526 5.151-.08.5-.443 1.162-1.722 1.483-3.066.77-5.801-3.178-6.761-6.228-.776-2.464-.435-4.246.916-4.766 1.201-.465 2.959.7 4.222 1.758 2.973 2.492 6.864 7.554 6.207 11.004-.177.924-.773 2.154-2.618 2.764-2.393.791-4.887-.319-7.214-3.214-4.008-4.984-6.52-14.175-4.714-17.251.261-.444.794-.959 1.87-.911 3.559.17 11.238 7.031 14.518 14.084 1.95 4.194 1.969 7.745.055 10.27-1.691 2.229-3.605 3.209-5.687 2.904-6.55-.952-12.614-14.552-15.646-22.573-2.628-6.95-1.324-9.564.233-10.533 3.686-2.292 11.251 2.498 16.497 8.17 6.264 6.771 11.172 18.802 8.495 25.918-1.118 2.971-3.49 4.722-6.86 5.064-.163.018-.327.025-.491.025-8.745 0-18.487-23.409-26.958-45.445-1.794-4.666-3.21-8.352-3.852-9.374-1.629-2.598-3.565-4.437-5.867-5.942-1.092.437-2.168.907-3.221 1.417 8.055 5.486 10.963 14.027 13.067 20.225.304.894.591 1.738.874 2.517 1.051 2.89 3.559 7.669 5.983 12.291 5.421 10.33 7.513 14.669 6.347 15.991-.166.188-.436.369-.857.369-.21 0-.458-.045-.749-.155-4.812-1.827-13.227-11.506-21.364-20.866l-1.365-1.569c-3.471-3.987-5.504-7.876-7.47-11.638-1.738-3.325-3.343-6.372-5.723-9.107v5.796c2.923 3.317 5.728 7.069 8.068 11.225 8.97 15.928 19.769 23.952 29.296 31.032 1.022.76 2.028 1.508 3.014 2.252 6.62 4.996 15.143 14.575 21.487 27.463 1.002-.71 1.977-1.455 2.923-2.235-3.188-8.414-5.805-17.061-3.176-33.518 3.751-23.464-10.301-29.329-19.6-33.21-1.981-.828-3.693-1.542-5.032-2.331-4.598-2.708-6.766-5.302-6.629-7.929.155-2.979 3.25-5.802 9.459-8.631 1.292-.588 2.439-1.217 3.479-1.874-3.321-.696-6.76-1.075-10.289-1.075-3.365 0-6.648.343-9.827.978.493.286 1.034.568 1.678.842zM29.474 84.138c.57-.29 1.216-2.827.017-10.498-.901-5.77-2.643-13.136-4.659-19.704-1.52-4.952-4.435-10.289-7.831-15.228v2.275c2.853 4.402 6.011 10.025 6.981 14.598.419 1.971.978 4.361 1.568 6.893 3.132 13.416 3.562 16.449 2.42 17.083-.111.062-.249.108-.412.108-.26 0-.582-.121-.954-.498-2.815-2.851-9.429-19.505-9.188-27.961.036-1.278.132-2.343.947-2.411.622-.057 1.668-.141 4.929 16.333.068.346-.155.682-.5.75-.345.066-.678-.156-.746-.501-1.1-5.552-2.488-11.535-3.359-14.139l-.001.004c-.222 7.812 5.874 23.556 8.618 26.805.052-2.252-1.755-9.992-2.99-15.283-.593-2.537-1.152-4.934-1.573-6.917-.807-3.797-3.266-8.46-5.739-12.459v15.119c2.039 7.826 4.837 16.745 9.41 22.919 2.271 3.065 3.032 2.728 3.062 2.712zM83 76.931v-22.553l-.007.084c-.525 6.395-1.198 14.713.007 22.469zM81.065 10.843l.419.334-.419-.334zM60.819 1.188c.375.084.751.167 1.122.259-.372-.092-.746-.176-1.122-.259zM76.407 10.188c.404 3.438-.68 6.095-2.974 7.29-2.695 1.404-6.563.499-9.627-2.251-3.145-2.824-2.906-4.967-2.483-5.993.816-1.984 3.512-3.153 6.866-2.974 1.846.098 3.092.689 3.704 1.759.966 1.689-.124 3.848-.171 3.939l-.122.166s-1.233 1.185-2.784 1.094c-.946-.053-1.8-.533-2.535-1.427-.224-.271-.186-.673.085-.897s.671-.186.895.085c.499.606 1.043.931 1.618.965.818.052 1.53-.478 1.761-.67.165-.37.685-1.696.149-2.625-.384-.668-1.281-1.043-2.666-1.117-2.723-.141-5.036.756-5.625 2.188-.508 1.234.258 2.852 2.157 4.557 2.671 2.398 5.963 3.23 8.192 2.069 1.825-.951 2.642-3.085 2.298-6.009-.099-.836-.271-2.297-.542-3.852-2.353-1.334-4.823-2.482-7.394-3.427-1.141.678-2.414 1.393-3.726 2.128-3.635 2.035-7.755 4.342-9.154 6.042-.279.34.229 1.114.459 1.431 2.992 4.096 17.13 11.852 22.597 9.637 2.392-.968 2.151-6.673.758-13.605-.696-.476-1.402-.939-2.124-1.38.135.881.265 1.831.388 2.877zM83 18.8v-6.347c-.313-.276-.639-.539-.959-.807.356 2.294.675 4.68.959 7.154zM18.437 88.757c.411.335.831.659 1.252.981-.421-.322-.841-.646-1.252-.981zM17 86.494v1.053c.322.283.655.554.984.828-.32-.627-.655-1.254-.984-1.881zM51.163 99.971c-.412-1.223-1.087-2.946-1.898-4.661-1.802-3.806-2.894-4.644-3.15-4.644h-.008c.002.001-.098.056-.223.359-.471 1.146.822 4.636 2.88 8.943-.439-.011-.88-.018-1.316-.037.845.044 1.696.069 2.552.069.827 0 1.648-.022 2.466-.062-.432.021-.868.023-1.303.033zM32.388 3.204l-.806.314.806-.314zM81.727 54.357c.284-3.456.508-6.187.345-7.841-.681-6.893-3.193-17.765-3.219-17.874-.08-.343.133-.685.475-.765.34-.08.683.133.763.476.022.097 1.964 8.496 2.91 15.267v-10.754c-.162-1.716-.315-3.466-.449-5.276-.463-6.252-1.126-11.908-1.98-17.128-.298-.23-.592-.464-.895-.688 1.195 6.599 1.264 12.458-1.814 13.705-.802.325-1.747.472-2.791.472-6.982 0-18.409-6.571-21.306-10.538-1.119-1.532-.843-2.474-.414-2.995 1.551-1.885 5.6-4.152 9.514-6.344.958-.536 1.893-1.061 2.77-1.567l.742.252c-1.43-.497-2.889-.93-4.374-1.296-1.339.94-2.877 1.832-4.666 2.647-5.656 2.577-8.589 5.113-8.716 7.537-.109 2.106 1.854 4.318 6.004 6.764 1.265.744 2.938 1.443 4.877 2.252 4.805 2.006 10.784 4.502 15.184 9.605 5.208 6.043 6.904 14.216 5.183 24.984-2.533 15.853-.102 24.324 2.952 32.447l.181-.152v-4.813c-2.831-9.326-1.937-20.34-1.276-28.377zM17 72.486v4.132c1.596 2.985 3.379 6.697 5.265 10.627.954 1.989 1.96 4.073 2.996 6.19 1.055.603 2.132 1.17 3.234 1.696-4.108-7.518-8.175-15.452-11.495-22.645zM23.575 92.43c.438.273.881.538 1.327.799-.447-.26-.889-.526-1.327-.799zM23.849 21.551c1.932 3.696 3.93 7.518 7.303 11.392l1.364 1.569c8.035 9.242 16.344 18.798 20.856 20.511l.216.064c.297-1.473-3.798-9.277-6.529-14.483-2.445-4.66-4.974-9.478-6.054-12.448-.287-.792-.576-1.642-.882-2.543-2.091-6.153-4.998-14.692-13.19-19.961-2.258 1.178-4.42 2.514-6.459 4.01.19.229.381.458.551.689 2.11 2.875 3.636 5.75 5.251 8.794 2.258 4.253 4.592 8.651 8.717 13.228 4.469 4.958 6.007 5.883 6.478 6.046.018-.466-.246-2.059-2.748-7.21-1.821-3.749-3.1-7.06-4.228-9.981-2.268-5.875-3.767-9.756-7.468-11.413-2.104-.942-2.524-.676-2.528-.674-.455.763 2.625 5.597 3.785 7.417l7.389 11.596c.189.297.103.691-.193.88-.296.189-.688.103-.877-.193l-7.39-11.597c-3.408-5.35-4.672-7.774-3.671-8.94.628-.732 1.826-.629 4.004.347 4.179 1.871 5.838 6.168 8.135 12.116 1.119 2.898 2.387 6.183 4.185 9.883 3.542 7.292 3.112 8.394 2.369 8.898-.781.528-2.056.478-8.184-6.321-4.23-4.693-6.603-9.162-8.896-13.483-1.593-3.001-3.097-5.836-5.152-8.637-.165-.224-.352-.447-.538-.671-.606.469-1.201.95-1.785 1.446 2.662 2.967 4.386 6.259 6.169 9.669zM23.255 92.226c-.731-1.507-1.447-2.992-2.136-4.428-1.447-3.017-2.834-5.907-4.119-8.431v4.424c1.158 2.146 2.284 4.296 3.341 6.448.945.699 1.92 1.356 2.914 1.987zM29.652 95.67l.447.202-.447-.202zM36.051 98.013c-1.631-6.145-2.478-12.542-3.332-19.126-1.266-9.758-2.575-19.849-6.711-29.66-2.427-5.758-5.523-11.086-9.008-15.955v3.229c3.948 5.53 7.373 11.605 9.046 17.059 2.032 6.623 3.79 14.056 4.7 19.882 1.662 10.634-.114 11.536-.698 11.833-1.542.784-3.396-1.389-4.657-3.091-3.84-5.183-6.439-12.174-8.391-18.885v6.135c3.69 8.257 8.558 17.761 13.412 26.567 2.074.886 4.22 1.634 6.427 2.235l-.788-.223z"/></g><path fill="#F2F1EF" d="M23 24s14.178 3 28 3c13.161 0 26-3 26-3v52l-5.971 1.165-1.029-11.165-5 1-.025 11.061s-9.037.939-13.975.939c-13.749 0-28-3-28-3v-52z"/><path fill="#7F8F96" d="M30 48v2.795s9.45 1.205 19.259 1.205c10.184 0 20.741-1.205 20.741-1.205v-2.795s-10.502 1.205-20.741 1.205c-9.749 0-19.259-1.205-19.259-1.205zm0 6v2.795s9.45 1.205 19.259 1.205c10.184 0 20.741-1.205 20.741-1.205v-2.795s-10.502 1.205-20.741 1.205c-9.749 0-19.259-1.205-19.259-1.205zm0-12v2.795s9.45 1.205 19.259 1.205c10.184 0 20.741-1.205 20.741-1.205v-2.795s-10.502 1.205-20.741 1.205c-9.749 0-19.259-1.205-19.259-1.205zm19.259-4.795c-9.749 0-19.259-1.205-19.259-1.205v2.795s9.45 1.205 19.259 1.205c10.184 0 20.741-1.205 20.741-1.205v-2.795s-10.502 1.205-20.741 1.205z"/><path fill="#A07244" d="M27 5.617l-.379.197c-.341.181-.68.364-1.016.552l-.849.491c-.292.17-.584.339-.871.516-.439.27-.871.548-1.301.831l-.384.246c-.572.383-1.134.779-1.688 1.186l-.363.273c-.442.331-.881.666-1.312 1.01l-.396.322c-.421.344-.838.693-1.248 1.05l-.192.169v75.08l.188.165c.414.36.833.713 1.259 1.06l.385.313c.436.348.879.687 1.326 1.021l.351.265c.555.406 1.119.803 1.691 1.188l.391.251c.427.28.856.557 1.292.825l.89.527.823.475c.345.194.694.382 1.044.567l.359.188v-88.768z"/><g fill="#B7844E"><path d="M27 43.173c-2.666-5.792-5.812-11.74-10-17.389v5.321c3.885 5.206 7.322 10.976 10 17.231v-5.163zM25.068 30.056c.634 1.126 1.28 2.204 1.932 3.253v-3.715c-1.699-2.532-3.005-5.019-4.276-7.452-1.739-3.325-3.344-6.372-5.724-9.107v5.796c2.923 3.317 5.728 7.069 8.068 11.225zM27 40.183v-4.513c-1.03-1.579-2.047-3.227-3.038-4.988-2.04-3.622-4.44-6.928-6.962-9.906v2.899c4.159 5.344 7.332 10.971 10 16.508zM24.498 9.142c-.33.553 1.195 3.239 2.502 5.372v-4.71c-2.079-.927-2.498-.665-2.502-.662zM17 33.272v3.229c3.948 5.53 7.373 11.605 9.046 17.059.327 1.066.644 2.157.954 3.255v-5.069c-.313-.842-.639-1.682-.992-2.52-2.427-5.757-5.523-11.085-9.008-15.954zM27 82.184v-2.704c-.125-.076-.256-.172-.396-.314-2.815-2.851-9.429-19.505-9.188-27.961.036-1.278.132-2.343.947-2.411.622-.057 1.668-.141 4.929 16.333.068.346-.155.682-.5.75-.345.066-.678-.156-.746-.501-1.1-5.552-2.488-11.535-3.359-14.139l-.001.004c-.215 7.536 5.45 22.453 8.314 26.412v-2.383c-.559-3.383-1.777-8.607-2.688-12.507-.593-2.537-1.152-4.934-1.573-6.917-.807-3.797-3.266-8.46-5.739-12.459v15.119c2.039 7.826 4.837 16.745 9.41 22.919.211.283.404.53.59.759zM17 38.708v2.275c2.853 4.402 6.011 10.025 6.981 14.598.419 1.971.978 4.361 1.568 6.893.571 2.447 1.052 4.546 1.45 6.352v-7.101c-.662-2.623-1.394-5.265-2.169-7.788-1.518-4.954-4.434-10.29-7.83-15.229zM27 84.105c-.588-.588-1.14-1.287-1.609-1.921-3.84-5.183-6.439-12.174-8.391-18.885v6.135c2.822 6.314 6.332 13.354 10 20.259v-5.588zM23.566 92.425l.316.202.89.527.147.085c-.455-.264-.906-.536-1.353-.814zM17 72.486v4.132c1.596 2.985 3.379 6.697 5.265 10.627.954 1.989 1.96 4.073 2.996 6.19l.336.193c.345.194.694.382 1.044.567l.359.188v-2.01c-3.592-6.679-7.083-13.568-10-19.887zM21.119 87.798c-1.447-3.017-2.834-5.907-4.119-8.431v4.424c1.157 2.145 2.282 4.292 3.339 6.444l.17.128c.555.406 1.119.803 1.691 1.188l.391.251.664.424c-.731-1.507-1.447-2.993-2.136-4.428zM21.024 10.352c2.11 2.875 3.636 5.75 5.251 8.794l.725 1.36v-3.595c-3.244-5.112-4.438-7.465-3.459-8.606.572-.668 1.628-.633 3.459.117v-2.723l-.067-.047-.312.162c-.341.181-.68.364-1.016.552l-.849.491c-.292.17-.584.339-.871.516-.439.27-.871.548-1.301.831l-.384.246c-.572.383-1.134.779-1.688 1.186l-.038.028c.19.229.38.457.55.688zM23.849 21.551c.977 1.869 1.972 3.77 3.151 5.693v-4.083c-.641-1.149-1.248-2.289-1.847-3.417-1.593-3.001-3.097-5.836-5.152-8.637-.165-.224-.352-.448-.538-.671l-.626.482-.396.322-.762.642c2.663 2.967 4.387 6.259 6.17 9.669zM18.435 88.755l.012.01.385.313c.283.226.572.443.86.662-.423-.323-.844-.649-1.257-.985zM17 86.494v1.046l.188.165c.262.229.53.448.797.671-.321-.628-.656-1.255-.985-1.882z"/></g><g fill="#C2C1BF"><path d="M52 78.988c.627-.013 1.299-.037 1.993-.069l-.993-11.919h-1v11.988zM58 78.673c.674-.05 1.334-.102 1.963-.153l-.963-12.52h-1v12.673zM71 65h-1v1l1.029 11.165.893-.174zM65 65h-1l-.022 13.16.997-.1.025-11.06.151-.03-.151-1.97zM47.996 78.953l-.996-11.953h-1v11.878c.663.03 1.329.056 1.996.075zM28 76.91c.642.106 1.332.216 2.069.328l-1.069-12.238h-1v11.91zM34 65v12.792c.545.07 1.105.14 1.676.208h.324l-1-13h-1zM40 78.457c.649.06 1.306.116 1.971.168l-.971-12.625h-1v12.457z"/></g><path fill="#DFDEDC" d="M27 24.745c-2.496-.428-4-.745-4-.745v52s1.505.316 4 .742v-51.997z"/></svg>