<svg xmlns="http://www.w3.org/2000/svg" width="100" height="100" viewBox="0 0 100 100"><path fill="#E2574C" d="M50 0c27.614 0 50 22.386 50 50s-22.386 50-50 50-50-22.386-50-50 22.386-50 50-50z"/><path fill="#CB4E44" d="M78.604 9c-1.005-.703-2.034-1.372-3.092-2h-12.512v-5.283c-.661-.177-1.328-.337-2-.488v5.771h-22v-5.771c-.671.151-1.339.311-2 .488v5.283h-12.512c-1.057.628-2.087 1.297-3.092 2h5.604v10h-16.215c-.518.654-1.019 1.32-1.503 2h3.718v10h-9.253c-.271.661-.534 1.326-.778 2h24.031v10h-26.502c-.093.664-.182 1.328-.249 2h12.751v10h-12.75c.067.672.156 1.337.249 2h26.501v10h-24.031c.244.675.506 1.34.778 2h9.253v10h-3.718c.484.68.985 1.347 1.503 2h16.215v10h-5.604c1.005.702 2.035 1.371 3.092 2h12.512v5.282c.661.178 1.329.338 2 .489v-5.771h22v5.771c.672-.151 1.339-.312 2-.489v-5.282h12.512c1.058-.629 2.087-1.298 3.092-2h-1.604v-10h12.215c.518-.653 1.019-1.32 1.503-2h-3.718v-10h9.253c.271-.66.534-1.325.778-2h-20.031v-10h22.502c.093-.663.182-1.328.248-2h-12.75v-10h12.75c-.066-.672-.155-1.336-.248-2h-22.502v-10h20.031c-.244-.674-.507-1.339-.778-2h-9.253v-10h3.718c-.484-.68-.985-1.346-1.503-2h-12.215v-10h1.604zm-25.604 0h22v10h-22v-10zm-14 60h22v10h-22v-10zm-10-2v-10h22v10h-22zm24 0v-10h22v10h-22zm8-12h-22v-10h22v10zm-32-12v-10h22v10h-22zm24 0v-10h22v10h-22zm8-12h-22v-10h22v10zm-32-22h22v10h-22v-10zm-14 22v-10h22v10h-22zm0 24v-10h22v10h-22zm0 24v-10h22v10h-22zm36 12h-22v-10h22v10zm24 0h-22v-10h22v10zm10-22v10h-22v-10h22zm0-24v10h-22v-10h22zm0-24v10h-22v-10h22z"/><path fill="#C04A41" d="M45 36c11.598 0 21 9.402 21 21s-9.402 21-21 21-21-9.402-21-21 9.402-21 21-21z"/><path fill="#AD423A" d="M26.53 67c.376.693.801 1.356 1.25 2h9.22v7.413c.65.269 1.318.503 2 .706v-8.119h22v1.583c.938-1.104 1.773-2.3 2.47-3.583h-10.47v-10h13c0-.675-.039-1.341-.101-2h-2.899v-8.775c-.691-1.152-1.487-2.23-2.379-3.225h-7.621v-5.413c-.65-.269-1.318-.502-2-.706v6.119h-21.621c-.57.636-1.109 1.298-1.599 2h9.22v10h-12.899c-.062.659-.101 1.325-.101 2h3v10h-.47zm12.47-22h22v10h-22v-10zm-10 12h22v10h-22v-10z"/><path fill="#F1CF76" d="M60.691 1.158l-8.129 30.336 3.863 1.035 8.138-30.368c-1.269-.386-2.562-.718-3.872-1.003z"/><path fill="#F1ABA6" d="M88.264 39.895l-6.419-6.419-11.999 4.961 4.256 4.255-8.49 4.205 19.791.07-4.954-4.954 7.815-2.118zm-28.52 25.279l5.449 7.822-5.795 1.386 8.175 10.235 8.742-2.09-5.86-5.738 6.746-1.613-17.457-10.002zm-28.814-35.32l-10.374-7.901-7.892 4.511 7.045 4.074-6.091 3.481 19.242 5.083-7.162-6.259 5.232-2.989zm-19.112 33.134l6.137 3.31-7.174 4.001 7.952 4.289 10.582-7.73-5.271-2.843 7.312-6.114-19.538 5.087z"/><g fill="#DEBF6D"><path d="M54.818 23.074l-.539 2.015 4.144-.011.54-2.015zM53.521 27.916l-.54 2.015 4.144-.012.54-2.014zM56.116 18.231l-.54 2.015 4.145-.011.539-2.014zM58.694 8.61l-.54 2.015 4.145-.011.539-2.014zM59.992 3.768l-.54 2.015 4.144-.011.54-2.015zM57.414 13.39l-.54 2.014 4.144-.011.54-2.014z"/></g><g fill="#E5A7A2"><path d="M64.685 81h10.071l-2.043-2h-9.626zM29 58.514l-2 .521v2.508l2-1.673zM76.315 82.527l-1.315-1.288v1.603zM29 38.083v-2.354l-2-1.748v3.574zM85.402 46.967l-.402-.403v.401zM77 35.479l-2 .827v6.694h-1.521l-4.039 2h13.996l-2-2h-4.436zM13 71.495l2 1.079v-3.574h11.382l2.738-2h-.12v-.312l-2-1.079v1.391h-10.304l-3.696 2.062zM13 26.659l2 1.156v-2.685l-2 1.143zM25.699 32.845l3.227-1.845h-10.023l-3.499 2h10.473zM61 73.999v2.388l2 2.505v-5.371zM61.017 67l1.983 2.848v-.848h3.422l-3.49-2z"/></g><path fill="#324D5B" d="M50 29c11.598 0 21 9.402 21 21s-9.402 21-21 21-21-9.402-21-21 9.402-21 21-21z"/><path fill="#3C5663" d="M60 42c1.105 0 2 .896 2 2s-.895 2-2 2c-1.104 0-2-.896-2-2s.896-2 2-2z"/><path fill="#2F4856" d="M53 67c-11.598 0-21-9.402-21-21 0-3.828 1.041-7.406 2.831-10.497-3.604 3.771-5.831 8.87-5.831 14.497 0 11.598 9.402 21 21 21 7.77 0 14.537-4.23 18.17-10.504-3.824 4-9.199 6.504-15.17 6.504z"/></svg>