<svg xmlns="http://www.w3.org/2000/svg" width="100" height="100" viewBox="0 0 100 100"><path fill="#EFC75E" d="M50 0c27.614 0 50 22.386 50 50s-22.386 50-50 50-50-22.386-50-50 22.386-50 50-50z"/><path fill="#324D5B" d="M27.717 38.077c-4.845 6.319-2.337 16.271.837 28.868 2.411 9.566 5.034 20.046 4.747 30.188 2.066.732 4.194 1.337 6.377 1.795.586-11.518-2.458-22.997-5.135-33.111-2.653-10.03-5.16-19.504-2.149-23.244 1.468-1.824 4.82-3.005 9.443-2.877l.165-6.688c-6.85-.18-11.53 1.477-14.285 5.069z"/><path fill="#2D4552" d="M35.301 96.133c.287-10.142-2.336-20.621-4.747-30.188-3.174-12.598-5.682-22.549-.837-28.868.84-1.095 1.883-1.989 3.088-2.727-2.115.843-3.816 2.07-5.088 3.727-4.845 6.319-2.337 16.271.837 28.868 2.411 9.566 5.034 20.046 4.747 30.188 2.066.732 4.194 1.337 6.377 1.795.025-.493.035-.986.047-1.48-1.5-.381-2.982-.804-4.424-1.315z"/><path fill="#E2574C" d="M56 48.73v-5.73c0-3.313-2.687-6-6-6s-6 2.687-6 6v5.73c-10.908 2.688-19 12.533-19 24.27v20.294c7.355 4.257 15.89 6.706 25 6.706s17.644-2.449 25-6.706v-20.294c0-11.737-8.092-21.582-19-24.27z"/><path fill="#CB4E44" d="M48 48.087v-4.261c-1.92-.34-3.389-1.152-3.846-2.159-.097.429-.154.874-.154 1.333v5.73c-10.908 2.688-19 12.533-19 24.27v20.294c1.924 1.113 3.926 2.105 6 2.959v-23.253c0-12.791 9.609-23.331 22-24.814-.984-.118-1.984-.186-3-.186-.674 0-1.34.034-2 .087z"/><path fill="#4681A0" d="M54.5 33h20c1.933 0 3.5 1.567 3.5 3.5 0 1.934-1.567 3.5-3.5 3.5h-20c-1.933 0-3.5-1.566-3.5-3.5 0-1.933 1.567-3.5 3.5-3.5zM49.524 32.402l20.93-12c1.445-.829 3.293-.337 4.127 1.098s.339 3.27-1.105 4.098l-20.93 12c-1.445.829-3.293.337-4.127-1.098s-.339-3.27 1.105-4.098z"/><path fill="#3F7490" d="M74.573 21.489c-.257.444-.619.835-1.098 1.109l-20.93 12c-1.441.826-3.282.338-4.119-1.087-.518.896-.565 2.029-.008 2.989.834 1.435 2.682 1.927 4.127 1.098l20.93-12c1.444-.829 1.939-2.664 1.105-4.098l-.007-.011zM74.5 37h-20c-1.394 0-2.587-.82-3.15-2-.218.456-.35.961-.35 1.5 0 1.934 1.567 3.5 3.5 3.5h20c1.933 0 3.5-1.566 3.5-3.5 0-.539-.132-1.044-.35-1.5-.563 1.18-1.756 2-3.15 2z"/><path fill="#fff" d="M50 26c5.522 0 10 4.478 10 10 0 5.523-4.478 10-10 10-5.523 0-10-4.477-10-10 0-5.522 4.477-10 10-10z"/><path fill="#EDEDED" d="M53.581 78.444c7.649-12.188-5.355-17.444-5.355-17.444 1.721 2.029.976 6.215-4.134 11.199-9.743 11.293 6.619 15.799 6.619 15.799-1.709-5.039 1.56-7.483 2.87-9.554zm3.827-7.44c.673 1.278-.709 6.632-2.729 9.068-3.749 4.534-2.562 6.831-2.271 7.898.036-.103.489-.603 3.985-3.051 7.466-5.211 1.015-13.915 1.015-13.915z"/><path fill="#324D5B" d="M52.478 32.158c.492.318.666 1.013.388 1.552l-2.858 6.484c-.141.603-.699.956-1.247.788-.548-.167-.877-.791-.736-1.395l3.059-7.029c.276-.538.901-.717 1.394-.4z"/><path fill="#CCD0D2" d="M50 38c3.313 0 6 1.344 6 3 0 1.657-2.687 3-6 3s-6-1.343-6-3c0-1.656 2.687-3 6-3z"/><path fill="#EDEDED" d="M50 28.5c4.136 0 7.5 3.364 7.5 7.5s-3.364 7.5-7.5 7.5-7.5-3.364-7.5-7.5 3.364-7.5 7.5-7.5m0-2.5c-5.523 0-10 4.478-10 10 0 5.523 4.477 10 10 10 5.522 0 10-4.477 10-10 0-5.522-4.478-10-10-10z"/></svg>