<svg xmlns="http://www.w3.org/2000/svg" width="100" height="100" viewBox="0 0 100 100"><path fill="#324D5B" d="M50 0c-27.614 0-50 22.386-50 50 0 27.615 22.386 50 50 50 27.616 0 50-22.385 50-50 0-27.614-22.385-50-50-50z"/><g fill="#2D4552"><path d="M36.738 54.498c-2.689.763-4.453 2.101-5.615 3.438 1.113-.974 2.604-1.868 4.615-2.438 2.057-.583 3.812-.579 5.262-.299v-1.134c-1.237-.113-2.655-.023-4.262.433zM31 44.966l-9.986 2.631s.182.257.519.6l8.467-2.231s-.12 1.546-1.162 2.929c1.971-1.491 2.162-3.929 2.162-3.929zM39.359 68.435c-14.053 3.785-21.488-12.501-23.739-20.954-1.04-3.902-1.494-6.857-1.615-8.764-.013-.198-.007-.365.007-.518-.729.044-1.078.423-1.007 1.518.121 1.906.575 4.861 1.615 8.764 2.25 8.452 9.686 24.738 23.739 20.953 3.059-.824 5.357-2.325 7.082-4.241-1.59 1.436-3.58 2.567-6.082 3.242zM42 34.999v1h5.512c-.113-.354-.227-.673-.34-1h-5.172z"/></g><g fill="#2D4552"><path d="M48.744 43.236c2.479.704 3.79 2.442 4.483 3.98l2.764.785s-.377-5.383-5.246-6.766c-4.555-1.294-7.358 2.531-7.699 3.026 1.325-.944 3.26-1.717 5.698-1.025zM70.746 47.241c-4.559-1.3-7.361 2.533-7.697 3.021 1.326-.943 3.26-1.716 5.697-1.021 2.475.705 3.785 2.441 4.48 3.98l2.768.788s-.383-5.384-5.248-6.768zM68 61.434l-22.993-6.428s.249 1.262 1.204 2.896l19.359 5.412c1.594-.922 2.43-1.88 2.43-1.88zM52.059 75.27c-18.206-4.881-16.005-28.078-13.059-39.07 1.213-4.53 2.46-7.897 3.494-10.154-.617-.127-1.128.198-1.633 1.225-1.098 2.227-2.502 5.853-3.861 10.929-2.945 10.992-5.146 34.188 13.059 39.069 8.581 2.299 15.266-1.195 20.249-6.682-4.73 4.284-10.769 6.686-18.249 4.683z"/></g><path fill="#E2574C" d="M42 62.999v-4.681l-13.006 3.688s.961-5.584 7.744-7.508c2.057-.583 3.812-.579 5.262-.299v-19.2h6.512c-.709-2.191-1.395-3.878-1.971-5.05-.953-1.94-1.93-.654-4.148 1.201-1.562 1.305-5.51 4.089-11.451 5.69-5.941 1.602-10.744 1.177-12.748.83-2.841-.49-4.327-1.114-4.188 1.047.121 1.906.575 4.861 1.615 8.764 2.25 8.452 9.686 24.738 23.739 20.953 3.671-.989 6.262-2.944 8.058-5.436h-5.418zm-20.987-15.402l9.987-2.631s-.291 3.842-4.035 4.829c-3.745.986-5.952-2.198-5.952-2.198z"/><path fill="#EDEDED" d="M79.586 35.221c-2.596.455-8.824 1.022-16.521-1.041-7.699-2.062-12.807-5.668-14.831-7.363-2.869-2.403-4.131-4.073-5.373-1.547-1.098 2.228-2.502 5.854-3.861 10.93-2.945 10.992-5.146 34.188 13.059 39.069 18.201 4.877 27.891-16.313 30.836-27.306 1.359-5.075 1.955-8.918 2.119-11.396.187-2.807-1.741-1.992-5.428-1.346zm-36.577 9.094s2.869-4.462 7.735-3.079c4.869 1.383 5.246 6.766 5.246 6.766l-12.981-3.687zm11.878 20.023c-8.559-2.507-9.879-9.332-9.879-9.332l22.992 6.428c0-.001-4.641 5.38-13.113 2.904zm8.129-14.026s2.865-4.459 7.73-3.072c4.865 1.385 5.248 6.768 5.248 6.768l-12.978-3.696z"/><path fill="#D65348" d="M37.455 59.607l-8.461 2.398s.919-5.236 7.152-7.311l-4.791-17.98-.414.126c-5.941 1.602-10.744 1.177-12.748.83-2.841-.49-4.327-1.114-4.188 1.047.121 1.906.575 4.861 1.615 8.764 2.25 8.452 9.686 24.738 23.739 20.953l.414-.13-2.318-8.697zm-16.442-12.01l9.987-2.631s-.291 3.842-4.035 4.829c-3.745.986-5.952-2.198-5.952-2.198z"/><path fill="#E1E1E1" d="M55.273 64.432l-.387-.094c-8.559-2.507-9.879-9.332-9.879-9.332l11.856 3.314 6.277-24.12-.076-.02c-7.699-2.062-12.807-5.668-14.831-7.363-2.869-2.403-4.131-4.073-5.373-1.547-1.097 2.228-2.501 5.854-3.86 10.93-2.945 10.992-5.146 34.188 13.059 39.069l.373.084 2.841-10.921zm-12.264-20.117s2.869-4.462 7.735-3.079c4.869 1.383 5.246 6.766 5.246 6.766l-12.981-3.687z"/><g fill="#C04B41"><path d="M37.886 59.484l-2.269.644c.536 3.022 1.481 5.922 2.964 8.484.258-.057.514-.106.777-.178.689-.186 1.328-.416 1.943-.667-1.657-2.459-2.753-5.291-3.415-8.283zM37 38.2c-1.166 4.352-2.209 10.616-1.922 16.899.514-.223 1.057-.431 1.66-.602l.42-.094c-.512-6.711.595-13.55 1.842-18.203.316-1.177.633-2.272.949-3.293-.509.324-1.057.656-1.681.998-.421 1.299-.846 2.719-1.268 4.295z"/></g></svg>