<svg xmlns="http://www.w3.org/2000/svg" width="100" height="100" viewBox="0 0 100 100"><path fill="#82D2ED" d="M50 0c27.614 0 50 22.386 50 50s-22.386 50-50 50-50-22.386-50-50 22.386-50 50-50z"/><path fill="#324D5B" d="M23 23v54c0 2.209 1.791 4 4 4h62.215c6.746-8.522 10.785-19.286 10.785-31s-4.039-22.478-10.785-31h-62.215c-2.209 0-4 1.791-4 4z"/><path fill="#2B414D" d="M46 26h-23v2h22v44h-22v2h70.869c3.906-7.125 6.131-15.302 6.131-24s-2.225-16.875-6.131-24h-47.869z"/><path fill="#EDEDED" d="M56 35h-2v2c0 .553-.447 1-1 1s-1-.447-1-1v-3c0-.552.447-1 1-1h3c.553 0 1 .448 1 1 0 .553-.447 1-1 1zm-3 27c.553 0 1 .447 1 1v2h2c.553 0 1 .447 1 1s-.447 1-1 1h-3c-.553 0-1-.447-1-1v-3c0-.553.447-1 1-1z"/><g fill="#3A5461"><circle cx="34" cy="50" r="6"/><path d="M32 41h4c.552 0 1-.447 1-1v-2c0-.552-.448-1-1-1h-4c-.552 0-1 .448-1 1v2c0 .553.448 1 1 1zM32 35h4c.552 0 1-.447 1-1v-2c0-.552-.448-1-1-1h-4c-.552 0-1 .448-1 1v2c0 .553.448 1 1 1zM36 65h-4c-.552 0-1 .447-1 1v2c0 .553.448 1 1 1h4c.552 0 1-.447 1-1v-2c0-.553-.448-1-1-1zM36 59h-4c-.552 0-1 .447-1 1v2c0 .553.448 1 1 1h4c.552 0 1-.447 1-1v-2c0-.553-.448-1-1-1z"/></g><path fill="#2B414D" d="M34 48c1.104 0 2 .896 2 2s-.896 2-2 2-2-.896-2-2 .896-2 2-2z"/></svg>