<svg id="Layer_1" data-name="Layer 1" xmlns="http://www.w3.org/2000/svg" width="1006" height="302.3" viewBox="0 0 1006 302.3"><defs><style>.cls-1{stroke:#a6a6a6;stroke-miterlimit:10;stroke-width:6px}.cls-2{fill:#fff}</style></defs><title>app-store-btn</title><path class="cls-1" d="M1108.54 684H179.15a35.11 35.11 0 0 1-35-35.06V422.67a35.06 35.06 0 0 1 35-35h929.39c19.3 0 35.58 15.7 35.58 35V648.9c0 19.3-16.27 35.06-35.58 35.06z" transform="translate(-141.12 -384.67)"/><path d="M1137 648.91a28.37 28.37 0 0 1-28.4 28.37H179.15a28.41 28.41 0 0 1-28.44-28.37V422.67a28.44 28.44 0 0 1 28.44-28.41h929.39a28.4 28.4 0 0 1 28.4 28.41v226.24z" transform="translate(-141.12 -384.67)"/><path class="cls-2" d="M367.29 534.21c-.21-23.87 19.55-35.49 20.45-36-11.19-16.32-28.54-18.55-34.64-18.73-14.57-1.53-28.7 8.72-36.13 8.72s-19-8.57-31.32-8.32c-15.85.24-30.68 9.42-38.81 23.67-16.79 29.06-4.27 71.76 11.81 95.25 8 11.5 17.44 24.35 29.75 23.9 12-.5 16.53-7.67 31.06-7.67s18.61 7.67 31.16 7.39c12.92-.21 21.05-11.56 28.81-23.16a95.05 95.05 0 0 0 13.18-26.84c-.29-.13-25.07-9.59-25.32-38.21zM343.59 464c6.47-8.1 10.9-19.11 9.67-30.29-9.37.41-21.09 6.48-27.84 14.4-6 7-11.3 18.41-9.93 29.17 10.51.79 21.34-5.28 28.1-13.28zM541.49 621h-16.82l-9.21-29h-32l-8.78 29h-16.41L490 522.45h19.6zm-28.81-41.1l-8.33-25.74q-1.32-3.94-5-18.57h-.3q-1.46 6.29-4.68 18.57l-8.19 25.74h26.47zM623.1 584.61q0 18.13-9.8 28.66a28.65 28.65 0 0 1-21.79 9.36q-14 0-20.19-10.09H571V650h-15.77v-76.65q0-11.4-.59-23.4h13.89l.88 11.27h.3q7.9-12.73 24-12.73 12.58 0 21 9.94t8.39 26.18zm-16.09.58q0-10.38-4.68-17.11a16.17 16.17 0 0 0-13.75-7 16.42 16.42 0 0 0-10.6 3.87 18 18 0 0 0-6.21 10.17 20.68 20.68 0 0 0-.73 4.81v11.85a19 19 0 0 0 4.76 13.1 15.76 15.76 0 0 0 12.36 5.34q8.92 0 13.89-6.87t4.95-18.16zM704.85 584.61q0 18.13-9.81 28.66a28.63 28.63 0 0 1-21.79 9.36q-14 0-20.18-10.09h-.3V650H637v-76.65q0-11.4-.59-23.4h13.89l.88 11.27h.3q7.89-12.73 24-12.73 12.57 0 21 9.94t8.37 26.18zm-16.09.58q0-10.38-4.69-17.11a16.15 16.15 0 0 0-13.74-7 16.44 16.44 0 0 0-10.61 3.87 18 18 0 0 0-6.21 10.17 21.08 21.08 0 0 0-.73 4.81v11.85a19 19 0 0 0 4.74 13.1 15.8 15.8 0 0 0 12.37 5.34q8.92 0 13.89-6.87t4.99-18.16zM796.26 593.38q0 12.58-8.76 20.47-9.63 8.63-26.85 8.63-15.91 0-25.55-6.14l3.66-13.16a43.29 43.29 0 0 0 22.83 6.3q8.92 0 13.9-4a13.16 13.16 0 0 0 5-10.77 13.73 13.73 0 0 0-4.1-10.1q-4.08-4.1-13.6-7.62-25.89-9.66-25.88-28.27a25 25 0 0 1 9.09-19.95q9-7.77 24.13-7.76 13.46 0 22.37 4.68l-3.95 12.87a38.81 38.81 0 0 0-18.9-4.56q-8.33 0-13 4.1a11.7 11.7 0 0 0-3.95 8.93 12 12 0 0 0 4.53 9.65q3.94 3.51 14.34 7.61 12.72 5.12 18.72 12c3.98 4.57 5.97 10.28 5.97 17.09zM848.48 561.8h-17.41v34.51q0 13.17 9.21 13.16a28.09 28.09 0 0 0 7-.73l.44 12a35.78 35.78 0 0 1-12.28 1.75q-9.36 0-14.63-5.7t-5.27-19.16v-35.85h-10.35v-11.85h10.37v-13l15.51-4.68v17.7h17.41v11.85zM927 584.9q0 16.39-9.36 26.91-9.81 10.83-26 10.82-15.64 0-24.93-10.38t-9.29-26.18q0-16.52 9.58-27.05t25.81-10.53q15.64 0 25.16 10.39Q927 569 927 584.9zm-16.39.51c0-6.56-1.4-12.18-4.24-16.87q-5-8.51-14.18-8.5-9.52 0-14.48 8.5c-2.84 4.7-4.24 10.41-4.24 17.16 0 6.56 1.4 12.18 4.24 16.86q5.12 8.51 14.34 8.5 9 0 14.18-8.65a32.09 32.09 0 0 0 4.4-17zM978.35 563.84a27.42 27.42 0 0 0-5-.44q-8.33 0-12.87 6.3-3.94 5.56-3.95 14V621h-15.76l.15-48.7q0-12.29-.59-22.38h13.76l.58 13.6h.44A24.31 24.31 0 0 1 963 552.3a19.1 19.1 0 0 1 11.41-3.81 25.36 25.36 0 0 1 3.95.29v15.06zM1049 582.12a37 37 0 0 1-.58 7.16H1001q.28 10.53 6.87 16.1 6 5 15.5 5a52.4 52.4 0 0 0 19.17-3.36l2.47 11q-10.09 4.4-23.83 4.39-16.53 0-26-9.73t-9.43-26.1q0-16.08 8.79-26.76 9.2-11.4 24.85-11.4 15.37 0 23.27 11.4 6.34 8.99 6.34 22.3zm-15.06-4.1a21.46 21.46 0 0 0-3.07-12.14q-4.1-6.59-12.59-6.59a15 15 0 0 0-12.57 6.44A23.57 23.57 0 0 0 1001 578h32.9z" transform="translate(-141.12 -384.67)"/><g><path class="cls-2" d="M507.45 461.81q0 13.08-7.84 19.69-7.26 6.1-20.61 6.1a95.58 95.58 0 0 1-11.36-.58v-47.64a83.8 83.8 0 0 1 13.37-1q12.72 0 19.19 5.53 7.25 6.26 7.25 17.9zm-8.19.21q0-8.48-4.49-13t-13.12-4.53a32.85 32.85 0 0 0-6.25.5v36.21a41 41 0 0 0 5.24.21q8.91 0 13.76-5t4.87-14.41zM550.85 469.42q0 8.06-4.6 13.22-4.82 5.36-12.79 5.36-7.69 0-12.25-5.1a18.59 18.59 0 0 1-4.56-12.9q0-8.11 4.7-13.29t12.65-5.17a16 16 0 0 1 12.36 5.1q4.49 4.95 4.49 12.78zm-8.05.25a15.79 15.79 0 0 0-2.08-8.29 7.67 7.67 0 0 0-7-4.18 7.79 7.79 0 0 0-7.12 4.18 16 16 0 0 0-2.08 8.43 15.79 15.79 0 0 0 2.08 8.29 7.83 7.83 0 0 0 7 4.18 7.75 7.75 0 0 0 7-4.25 15.69 15.69 0 0 0 2.2-8.36zM609 452.25l-10.93 34.92H591L586.48 472a113.49 113.49 0 0 1-2.81-11.28h-.14a82.59 82.59 0 0 1-2.8 11.28l-4.81 15.16h-7.19l-10.27-34.92h8l3.95 16.6q1.43 5.89 2.37 11.21h.14q.87-4.38 2.88-11.13l5-16.67h6.33l4.75 16.31q1.72 6 2.8 11.5h.21a109.84 109.84 0 0 1 2.37-11.5l4.24-16.31h7.5zM649.29 487.17h-7.76v-20q0-9.24-7-9.24a7 7 0 0 0-5.61 2.54 9 9 0 0 0-2.16 6v20.71H619v-24.95q0-4.6-.28-10h6.82l.36 5.46h.21a11.22 11.22 0 0 1 4-4.21 13.12 13.12 0 0 1 7-2 11.14 11.14 0 0 1 8.13 3.16q4 3.88 4 11.57v20.92zM670.7 487.17h-7.76v-50.94h7.76v50.94zM716.4 469.42q0 8.06-4.6 13.22Q707 488 699 488q-7.7 0-12.25-5.1a18.59 18.59 0 0 1-4.55-12.9q0-8.11 4.7-13.29t12.67-5.17a16 16 0 0 1 12.37 5.1q4.45 4.95 4.46 12.78zm-8.06.25a15.79 15.79 0 0 0-2.08-8.29 7.66 7.66 0 0 0-7-4.18 7.77 7.77 0 0 0-7.12 4.18 16 16 0 0 0-2.08 8.43 15.79 15.79 0 0 0 2.08 8.29 7.83 7.83 0 0 0 7 4.18 7.74 7.74 0 0 0 7-4.25 15.63 15.63 0 0 0 2.2-8.36zM754 487.17h-7l-.58-4h-.21Q742.63 488 736 488a10.53 10.53 0 0 1-8-3.16 9.92 9.92 0 0 1-2.73-7.11 10.85 10.85 0 0 1 5.36-9.77q5.36-3.38 15.06-3.3V464q0-6.9-7.25-6.9a16.24 16.24 0 0 0-9.1 2.59l-1.58-5.1a22.39 22.39 0 0 1 12-3q13.69 0 13.7 14.44v12.86a54.54 54.54 0 0 0 .54 8.28zm-8.06-12v-5.39q-12.84-.22-12.84 7a5.26 5.26 0 0 0 1.49 4.1 5.43 5.43 0 0 0 3.79 1.36 7.84 7.84 0 0 0 4.75-1.61 6.63 6.63 0 0 0 2.78-5.46zM798.08 487.17h-6.89l-.36-5.61h-.21c-2.2 4.27-5.95 6.4-11.21 6.4a13.14 13.14 0 0 1-10.49-5q-4.17-5-4.16-12.86 0-8.48 4.53-13.73a13.92 13.92 0 0 1 10.78-4.89q7 0 9.84 4.74h.09v-20h7.77v41.53q.04 5.11.31 9.42zm-8-14.73v-5.82a11.43 11.43 0 0 0-.21-2.44 8.84 8.84 0 0 0-2.81-4.7 7.63 7.63 0 0 0-5.19-1.9A8 8 0 0 0 775 461a14.79 14.79 0 0 0-2.49 8.84 13.79 13.79 0 0 0 2.39 8.41 8 8 0 0 0 6.79 3.44 7.48 7.48 0 0 0 6.13-2.87 9.57 9.57 0 0 0 2.18-6.38zM864.48 469.42q0 8.06-4.6 13.22c-3.21 3.55-7.47 5.32-12.79 5.32q-7.68 0-12.25-5.1a18.59 18.59 0 0 1-4.56-12.86q0-8.11 4.7-13.29t12.69-5.17q7.68 0 12.36 5.1 4.44 4.95 4.45 12.78zm-8 .25a15.79 15.79 0 0 0-2.08-8.29 7.68 7.68 0 0 0-7-4.18 7.8 7.8 0 0 0-7.12 4.18 16 16 0 0 0-2.08 8.43 15.79 15.79 0 0 0 2.08 8.29 7.93 7.93 0 0 0 14-.07 15.76 15.76 0 0 0 2.15-8.36zM906.22 487.17h-7.76v-20q0-9.24-7-9.24a7 7 0 0 0-5.6 2.54 9 9 0 0 0-2.16 6v20.71h-7.77v-24.95q0-4.6-.27-10h6.81l.36 5.46h.17a11.33 11.33 0 0 1 4-4.21 13.15 13.15 0 0 1 7-2 11.14 11.14 0 0 1 8.12 3.16q4 3.88 4 11.57v20.92zM958.46 458.07h-8.55v17c0 4.31 1.52 6.47 4.53 6.47a13.67 13.67 0 0 0 3.46-.36l.2 5.89a17.44 17.44 0 0 1-6 .87 9.28 9.28 0 0 1-7.18-2.8q-2.6-2.8-2.59-9.41v-17.66h-5.1v-5.81h5.1v-6.4l7.61-2.3v8.69h8.55v5.82zM999.56 487.17h-7.77v-19.85q0-9.39-7-9.39c-3.6 0-6.06 1.81-7.41 5.44a9.76 9.76 0 0 0-.36 2.79v21h-7.76v-50.93H977v21h.15a11.73 11.73 0 0 1 10.49-5.74 10.82 10.82 0 0 1 8 3.16q3.94 3.94 3.95 11.71v20.76zM1042 468.06a18.75 18.75 0 0 1-.29 3.52h-23.28c.1 3.45 1.21 6.08 3.37 7.9a11.56 11.56 0 0 0 7.62 2.44 25.72 25.72 0 0 0 9.41-1.65l1.21 5.39a29.24 29.24 0 0 1-11.72 2.16c-5.41 0-9.67-1.59-12.75-4.78s-4.63-7.46-4.63-12.82a20 20 0 0 1 4.31-13.15 14.85 14.85 0 0 1 12.21-5.6c5 0 8.84 1.87 11.41 5.6a18.64 18.64 0 0 1 3.13 10.99zm-7.41-2a10.45 10.45 0 0 0-1.5-6 6.78 6.78 0 0 0-6.18-3.24 7.37 7.37 0 0 0-6.18 3.16 11.75 11.75 0 0 0-2.3 6h16.16z" transform="translate(-141.12 -384.67)"/></g></svg>