<svg id="Layer_1" data-name="Layer 1" xmlns="http://www.w3.org/2000/svg" width="24" height="23.91" viewBox="0 0 24 23.91"><defs><style>.cls-1{fill:#fff}</style></defs><title>chat-icon</title><path class="cls-1" d="M704.73 289.27h-16a4 4 0 0 0-4 4v10.5a4 4 0 0 0 4 4h3.7v5.39l6.68-5.39h5.61a4 4 0 0 0 4-4v-10.5a4 4 0 0 0-3.99-4zm1.5 14.51a1.52 1.52 0 0 1-1.5 1.5h-6.49l-.69.56-2.6 2.1v-2.66h-6.21a1.52 1.52 0 0 1-1.5-1.5v-10.5a1.52 1.52 0 0 1 1.5-1.5h16a1.52 1.52 0 0 1 1.5 1.5v10.5z" transform="translate(-684.74 -289.27)"/><circle class="cls-1" cx="6.86" cy="9.26" r="1.46"/><circle class="cls-1" cx="12" cy="9.26" r="1.46"/><circle class="cls-1" cx="17.14" cy="9.26" r="1.46"/></svg>