<svg xmlns="http://www.w3.org/2000/svg" width="512" height="512" viewBox="0 0 75.352 75.351"><path d="M24.733 51.242c2.07 4.397 5.162 8.602 9.208 12.516a26.245 26.245 0 0 1-18.797-12.616l9.59.1zm9.054-39.436c-7.736 1.168-14.37 5.72-18.35 12.118l9.3.102c2.043-4.31 5.09-8.412 9.05-12.22zm3.116 12.35l.138-12.637h-.027c-4.445 3.88-7.827 8.078-10.08 12.524l9.97.112zM15.44 28.08l-1.837-.016-1.814-.023-.144 13.126-7.35-13.205-2.05-.02L.2 27.918 0 46.592l1.826.027 1.818.016.145-13.463 7.56 13.547 1.948.022 1.943.023.2-18.684zm17.464 3.506l.016-1.665.02-1.653-13.752-.147-.2 18.684 14.18.148.018-1.66.016-1.656-10.275-.11.05-4.874 9.137.098.016-1.602.016-1.612-9.134-.096.044-3.96 9.848.106zm18.644 10.447l-2.56-13.59-2.083-.023-2.073-.026-2.814 13.648-2.975-13.707-2.028-.023-2.03-.024 4.998 18.74 1.853.02 1.86.024 3.09-14.685 2.842 14.743 1.863.027 1.852.02 5.4-18.63-1.973-.02-1.974-.022-3.248 13.528zm-12.5-30.49h-.028l-.136 12.634 9.98.105c-2.166-4.494-5.453-8.763-9.817-12.74zm21.31 12.86c-3.843-6.48-10.376-11.17-18.095-12.506 3.887 3.89 6.843 8.054 8.796 12.408l9.3.098zM41 63.833c8.045-1 14.957-5.613 19.067-12.215l-9.592-.1c-2.162 4.352-5.35 8.487-9.475 12.315zm7.265-12.338l-9.673-.105-.13 12.067c4.256-3.707 7.547-7.73 9.803-11.962zm25.76-13.115c-.913-.805-2.715-1.53-5.43-2.158-1.865-.448-3.088-.815-3.658-1.132-.582-.306-.874-.743-.867-1.306.005-.77.292-1.393.86-1.82.56-.413 1.34-.625 2.326-.612 1.144.01 2.07.285 2.776.807.703.523 1.086 1.227 1.14 2.12l3.802.046c-.12-1.88-.835-3.366-2.136-4.482-1.298-1.117-2.997-1.685-5.09-1.705-2.234-.026-4.016.49-5.34 1.526-1.322 1.05-1.993 2.498-2.01 4.3-.02 1.62.462 2.816 1.44 3.594.994.773 2.97 1.51 5.922 2.2 1.605.373 2.65.74 3.143 1.066.493.338.742.852.735 1.56-.007.715-.365 1.26-1.068 1.657-.707.393-1.674.584-2.924.57-1.21-.014-2.153-.288-2.822-.83-.677-.536-1.023-1.296-1.056-2.298l-3.76-.038c.07 2.016.767 3.576 2.086 4.685 1.318 1.118 3.16 1.68 5.52 1.702 2.36.022 4.227-.46 5.62-1.482 1.397-1.018 2.097-2.4 2.115-4.156.03-1.744-.42-3.018-1.325-3.816zM36.482 63.422l.13-12.054-9.672-.104c2.173 4.275 5.372 8.367 9.542 12.158z" fill="#bbc0c2"/></svg>