<svg xmlns="http://www.w3.org/2000/svg" width="512" height="512" viewBox="0 0 31.559 31.559"><g fill="#bbc0c2"><path d="M16.646 16.945c.96-.457 1.272-1.8.702-2.995-.57-1.198-1.812-1.8-2.77-1.344-.96.457-1.273 1.8-.702 3 .57 1.195 1.812 1.798 2.77 1.34z"/><path d="M19.52 9.796c.922 5.77-3.185 10.097-3.185 10.097s-3.386-5.73-9.08-7.458c11.076 8.1 4.772 18.196 4.772 18.196h3.206s7.453-12.86 4.287-20.834zM13.27 10.455a5.377 5.377 0 0 1-.19-.298c-.292-.506-.426-.976-.426-.976s.338.355.63.858c.062.107.115.212.164.312.046-.24.1-.736-.134-1.144-.323-.56-1.067-.733-1.067-.733s-.222.732.1 1.292c.235.408.69.61.922.69z"/><path d="M20.622 14.7c.186.16.588.454 1.057.454.645 0 1.167-.56 1.167-.56s-.52-.557-1.168-.557c-.47 0-.872.294-1.058.454a4.836 4.836 0 0 1 1.413.103s-.477.118-1.06.117a3.08 3.08 0 0 1-.353-.01zM18.276 10.04c.29-.506.63-.86.63-.86s-.134.473-.427.98a4.517 4.517 0 0 1-.19.297c.234-.08.69-.283.922-.688.324-.562.104-1.295.104-1.295s-.746.177-1.068.734c-.234.405-.182.9-.135 1.143.046-.1.1-.206.163-.313zM15.52 6.994c0-1.3.26-2.354.26-2.354s.262 1.055.262 2.354c0 .275-.013.535-.033.78.357-.412 1.01-1.307 1.01-2.35 0-1.437-1.24-2.6-1.24-2.6s-1.24 1.163-1.24 2.6c0 1.043.653 1.937 1.01 2.35-.018-.245-.03-.504-.03-.78zM7.217 11.084c.905.522 2.005.403 2.542.3a9.496 9.496 0 0 1-.693-.362C7.94 10.372 7.16 9.62 7.16 9.62s1.042.3 2.168.95c.238.138.457.278.66.42-.177-.52-.624-1.53-1.53-2.053-1.242-.72-2.87-.227-2.87-.227s.386 1.657 1.63 2.374zM24.342 18.107c-.904-.52-2.004-.404-2.54-.3.222.104.454.226.692.362 1.125.65 1.908 1.4 1.908 1.4s-1.043-.298-2.17-.948a9.958 9.958 0 0 1-.66-.42c.178.518.625 1.53 1.53 2.05 1.24.72 2.87.228 2.87.228s-.388-1.656-1.63-2.373zM9.987 18.205c-.204.14-.422.28-.66.418-1.126.648-2.17.95-2.17.95s.782-.753 1.908-1.403c.24-.14.47-.256.693-.363-.536-.104-1.638-.223-2.542.3-1.243.718-1.63 2.374-1.63 2.374s1.627.493 2.87-.224c.906-.524 1.353-1.535 1.53-2.05zM21.573 10.985c.203-.14.422-.28.662-.417 1.125-.65 2.168-.95 2.168-.95s-.78.753-1.908 1.402c-.238.138-.47.258-.69.362.534.104 1.636.224 2.538-.3 1.244-.718 1.63-2.374 1.63-2.374s-1.626-.49-2.868.227c-.907.522-1.355 1.534-1.532 2.05zM10.94 6.83a14.136 14.136 0 0 1-.56-.886c-.87-1.508-1.274-2.908-1.274-2.908s1.01 1.048 1.88 2.56c.186.318.345.63.487.928.14-.72.3-2.194-.4-3.406C10.11 1.45 7.89.93 7.89.93s-.66 2.183.303 3.85c.7 1.212 2.058 1.81 2.748 2.05zM20.62 22.36c.186.274.377.567.56.886.874 1.514 1.276 2.91 1.276 2.91s-1.01-1.05-1.883-2.56a13.78 13.78 0 0 1-.486-.927c-.137.718-.297 2.19.402 3.403.962 1.666 3.18 2.188 3.18 2.188s.663-2.183-.3-3.85c-.702-1.21-2.06-1.81-2.75-2.05zM5.588 14.947c-1.743 0-3.156-.352-3.156-.352s1.413-.352 3.156-.352c.37 0 .72.02 1.048.044-.553-.48-1.75-1.356-3.153-1.356C1.56 12.933 0 14.596 0 14.596s1.56 1.664 3.483 1.663c1.4 0 2.6-.875 3.152-1.354-.33.025-.68.043-1.047.043zM28.077 12.935c-1.4 0-2.598.872-3.152 1.354.33-.026.68-.045 1.047-.044 1.744 0 3.156.35 3.156.35s-1.412.353-3.154.353c-.37 0-.72-.02-1.05-.044.554.48 1.753 1.354 3.153 1.354 1.924 0 3.482-1.66 3.482-1.66s-1.56-1.667-3.483-1.665zM10.988 23.598c-.872 1.51-1.882 2.56-1.882 2.56s.402-1.4 1.274-2.91c.186-.32.375-.612.562-.888-.692.24-2.05.84-2.75 2.053-.963 1.666-.303 3.85-.303 3.85s2.22-.52 3.182-2.186c.7-1.213.542-2.69.403-3.406-.145.297-.304.605-.487.928zM20.573 5.593c.87-1.51 1.88-2.558 1.88-2.558s-.4 1.4-1.274 2.908a14.53 14.53 0 0 1-.56.886c.69-.24 2.05-.84 2.748-2.052.963-1.666.303-3.85.303-3.85s-2.218.52-3.18 2.186c-.704 1.213-.544 2.688-.405 3.406.144-.295.302-.606.488-.927z"/></g></svg>