<svg xmlns="http://www.w3.org/2000/svg" width="512" height="512" viewBox="0 0 32.004 32.004"><path d="M9.897 24.87h2.957l.514 1.65h1.818l-2.824-8.013h-1.93L7.578 26.52H9.34l.557-1.65zm1.473-4.554h.023l.992 3.168h-2.042l1.027-3.168zm-4.278 3.83c0-.793-.256-1.574-1.238-1.94.334-.168.982-.49.982-1.642 0-.826-.502-2.055-2.467-2.055H.474v8.013h3.393c1.64 0 2.076-.28 2.533-.728.424-.41.692-1.016.692-1.65zm-5.01-4.25h1.92c.76 0 1.228.2 1.228.857 0 .638-.523.894-1.184.894H2.083v-1.752zm2.053 5.242H2.083v-2.143h2.13c.605 0 1.206.27 1.206.97-.002.814-.47 1.173-1.285 1.173zM28.07 21.79l3.46 4.73h-2.155l-2.477-3.516-.78.804v2.71h-1.675v-8.01h1.674v3.257l3.06-3.258h2.163l-3.27 3.283zM7.58 30.97c0-.767-.185-.893-.522-1.04.406-.138.635-.525.635-.98 0-.354-.2-1.16-1.29-1.16H4.325v4.105h.842V30.29h.885c.635 0 .67.218.67.776 0 .422.033.636.09.828h.95v-.107c-.184-.07-.184-.22-.184-.818zM6.17 29.6H5.167v-1.1h1.068c.502 0 .6.318.6.537 0 .404-.217.563-.665.563zm2.782-18.106l-.02-.662c-.016-.26.05-.542.078-.86.033-.32.076-.668.197-1.022.102-.357.19-.75.387-1.114.086-.188.174-.38.266-.575.096-.19.23-.363.344-.55.227-.384.52-.722.822-1.06.29-.353.65-.622.977-.933.36-.254.7-.548 1.068-.755.362-.228.718-.432 1.07-.6.345-.187.688-.313 1-.453.485-.19.915-.335 1.27-.44a7.613 7.613 0 0 1-.37-1.146A6 6 0 0 1 15.85 0c.464.13.853.32 1.232.517.377.2.72.423 1.043.665a10.05 10.05 0 0 1 1.705 1.625c.38.45.414 1.076.13 1.555l-.058.098c-.46.77-1.01 1.488-1.674 2.13A8.132 8.132 0 0 1 16.5 7.885a5.885 5.885 0 0 1-.722.336 5.552 5.552 0 0 1 .006-.796c.025-.25.057-.497.096-.74.086-.48.21-.934.367-1.367.016-.047.035-.09.053-.137-.154.02-.314.04-.488.065-.27.058-.582.098-.89.188a8.104 8.104 0 0 0-.974.293c-.346.102-.656.278-1.008.42-.31.19-.666.347-.96.58-.306.222-.616.446-.87.723-.13.133-.28.256-.396.4l-.332.437c-.242.28-.39.602-.555.9-.18.295-.29.6-.383.888-.088.287-.215.547-.252.792-.047.246-.088.46-.12.636l-.106.562s-.003-.208-.014-.57zM.476 27.79h3.338v.73H2.57v3.377h-.854V28.52H.476v-.73zm9.008 0L8.02 31.896h.905l.285-.847h1.514l.264.847h.932l-1.445-4.104h-.99zm-.044 2.55l.527-1.622h.008l.512 1.622H9.44zm7.58-16.397c-.342.197-.68.335-.99.483-.478.202-.9.36-1.253.475.16.36.297.736.404 1.137.108.413.206.835.23 1.316-.47-.115-.864-.293-1.247-.48a7.545 7.545 0 0 1-1.064-.632 10.15 10.15 0 0 1-1.753-1.572 1.346 1.346 0 0 1-.178-1.55l.056-.1a10.26 10.26 0 0 1 1.61-2.178 8.167 8.167 0 0 1 1.063-.933c.2-.142.405-.28.62-.413.22-.13.455-.25.713-.357.025.276.03.54.016.796-.02.252-.042.5-.073.743-.072.48-.182.94-.326 1.378-.015.047-.034.09-.048.138.152-.023.313-.05.486-.08.27-.065.578-.114.883-.214.317-.08.64-.19.965-.322.343-.11.648-.297.994-.448.303-.2.657-.367.94-.61.3-.23.604-.464.848-.747.13-.137.273-.265.388-.41l.317-.45c.234-.286.373-.612.527-.916.172-.3.27-.608.354-.898.08-.29.2-.553.23-.8.038-.246.07-.46.1-.638.06-.36.09-.564.09-.564s.016.206.035.568c.01.184.02.407.038.662.022.26-.033.544-.054.863a4.55 4.55 0 0 1-.166 1.025c-.092.36-.17.754-.354 1.124l-.248.583c-.092.193-.217.37-.327.56-.217.392-.5.737-.79 1.084-.28.36-.632.642-.95.96-.352.266-.686.57-1.046.788-.35.24-.7.454-1.045.63zM20.42 27.79h2.92v.73H21.28v.926h1.806v.726H21.28v1.726h-.858V27.79zm-5.444 0h.8v4.105h-.858l-1.674-2.927h-.013v2.927h-.8V27.79h.903l1.63 2.858h.01l.002-2.857zm16.008 3.18c0-.767-.186-.893-.52-1.04.403-.138.636-.525.636-.98 0-.354-.2-1.16-1.293-1.16h-2.075v4.105h.842V30.29h.885c.633 0 .67.218.67.776 0 .422.033.636.09.828h.947v-.107c-.184-.07-.184-.22-.184-.818zM29.58 29.6h-1.004v-1.1h1.066c.504 0 .602.318.602.537 0 .404-.217.563-.664.563zm-9.813 1.06c0 1.232-1.26 1.344-1.617 1.344-1.498 0-1.753-.86-1.753-1.372h.82c.006.23.12.663.87.663.404 0 .857-.1.857-.53 0-.32-.31-.405-.743-.51l-.438-.104c-.664-.15-1.303-.302-1.303-1.206 0-.457.244-1.262 1.576-1.262 1.258 0 1.594.822 1.6 1.325h-.82c-.023-.183-.092-.616-.842-.616-.324 0-.715.12-.715.49 0 .32.263.39.435.43l.998.247c.56.136 1.074.367 1.074 1.104zm4.99.51h2.276v.727h-3.115v-4.104h3.02v.728h-2.18v.863h2v.726h-2v1.06zm-7.013-4.647h-1.562V18.51h1.763l3.182 5.58h.02v-5.58h1.563v8.014h-1.672l-3.27-5.713h-.022l-.002 5.713z" fill="#bbc0c2"/></svg>