<svg xmlns="http://www.w3.org/2000/svg" width="512" height="512" viewBox="0 0 111.33 111.33"><g fill="#bbc0c2"><path d="M0 88.4h20.766v-5.094H6.002V71.78h13.83v-5.017H6.003v-9.996h14.764v-5.072H0zM44.315 56.315c1.52 0 2.977.22 4.35.662 1.385.445 2.692.96 3.93 1.545l2.163-4.997c-3.183-1.574-6.644-2.36-10.398-2.36-3.568 0-6.665.762-9.313 2.285-2.644 1.524-4.66 3.72-6.062 6.58-1.396 2.862-2.096 6.202-2.096 10.018 0 6.06 1.437 10.72 4.316 13.973 2.88 3.256 7 4.885 12.38 4.885 3.65 0 6.914-.54 9.788-1.633v-5.146a51.186 51.186 0 0 1-4.546 1.19c-1.458.31-2.963.463-4.516.463-3.6 0-6.354-1.158-8.25-3.468-1.903-2.307-2.853-5.715-2.853-10.22 0-4.3.992-7.672 2.964-10.115 1.98-2.44 4.692-3.662 8.14-3.662zM110.68 23.592c-.41-.147-1.062-.457-1.827-.628-.773-.183-1.814-.5-2.868-.546a24.647 24.647 0 0 0-3.573.065c-1.272.158-2.56.488-3.936.902-1.368.42-2.62 1.068-3.95 1.776-1.3.73-2.47 1.623-3.64 2.594a30.24 30.24 0 0 0-3.1 3.246c-.87 1.18-1.746 2.404-2.397 3.69-.68 1.28-1.26 2.593-1.66 3.928-.866 2.647-1.147 5.344-1.09 7.734.056 1.213.18 2.334.367 3.36.178 1.003.46 1.925.688 2.67-1.81-.644-3.79-1.05-6.033-1.142a.924.924 0 0 0 .065-.052c-.336-.015-.63-.08-.976-.08-5.536 0-9.8 1.625-12.79 4.873-2.985 3.25-4.478 7.9-4.478 13.958v.127c0 1.188.104 2.286.22 3.367l.007-.003c.48 4.375 1.86 7.914 4.228 10.532 2.78 3.08 6.73 4.657 11.755 4.855l-.062.052c.337.013.63.077.977.077 5.537 0 9.8-1.625 12.792-4.873 2.983-3.247 4.476-7.898 4.476-13.955v-.066-.062c0-1.188-.103-2.286-.223-3.367l-.007.004c-.48-4.378-1.858-7.913-4.23-10.537-.804-.902-1.752-1.634-2.754-2.277l1.27-.003c.56-.207 1.17-.428 1.786-.712.907-.39 1.868-.844 2.837-1.36.985-.507 1.943-1.096 2.93-1.712.972-.617 1.902-1.314 2.806-2.03.89-.74 1.773-1.487 2.56-2.312.788-.836 1.582-1.63 2.26-2.532a29.127 29.127 0 0 0 3.505-5.523c.492-.914.89-1.972 1.28-2.928.403-.95.73-2 1.06-2.962.33-.946.63-1.903.897-2.832.294-.96.547-1.8.76-2.485.246-.683.396-1.398.533-1.82.124-.475.186-.723.186-.723s-.24-.12-.65-.288zM87.148 74.224l-.007.003a17.743 17.743 0 0 1-.652 2.666c-.13.38-.25.763-.4 1.112-.09.2-.182.396-.273.588-.315.62-.66 1.21-1.064 1.722-.954 1.22-2.166 2.095-3.61 2.677-1.286.51-2.758.79-4.437.79-3.576 0-6.283-1.167-8.107-3.504-1.824-2.334-2.737-5.76-2.737-10.28 0-1.526.143-2.878.354-4.15 0 0 0-.004.007-.004.158-.962.385-1.838.654-2.666.127-.38.243-.764.4-1.112.082-.202.182-.397.274-.59.314-.618.66-1.207 1.06-1.72.96-1.22 2.17-2.095 3.615-2.677 1.286-.513 2.75-.793 4.438-.793 3.577 0 6.283 1.168 8.107 3.506 1.824 2.334 2.738 5.76 2.738 10.28a25.618 25.618 0 0 1-.357 4.15zm10.65-39.747c-.294.24-.677.48-1.04.857-.376.364-.804.77-1.26 1.216-.424.48-.882 1.01-1.36 1.562L92.74 39.95a48.06 48.06 0 0 0-2.6 4.274c-1.622 3.003-2.93 6.156-3.792 8.557-.096.257-.178.496-.26.73-.548-.312-1.074-.655-1.67-.903.075-.175.144-.334.226-.52 1.082-2.383 2.67-5.49 4.56-8.42a49.182 49.182 0 0 1 2.99-4.132c.547-.612 1.067-1.2 1.567-1.762.527-.52 1.034-1.017 1.5-1.465.5-.417.965-.792 1.368-1.126.397-.353.808-.568 1.115-.777.637-.417.993-.648.993-.648s-.336.263-.937.72z"/></g></svg>