<svg xmlns="http://www.w3.org/2000/svg" width="512" height="512" viewBox="0 0 421.163 421.163"><g fill="#bbc0c2"><path d="M261.548 131.16c-79.953 0-145 65.048-145 145 0 30.915 9.73 59.597 26.282 83.155-26.084-2.333-48.082-9.03-65.455-19.98-19.626-12.368-31.68-31.822-33.07-53.373-2.41-37.276 22.57-71.647 37.677-88.82a302.58 302.58 0 0 1 39.342-37.34c11.896-9.412 24.43-17.75 39.586-27.374a1.5 1.5 0 0 0-1.22-2.708c-32.11 9.262-61.857 24.775-86.022 44.863-26.783 22.264-45.706 49.66-54.722 79.22-7.02 23.025-5.45 47.99 4.314 68.495 13.866 29.12 43.48 49.946 81.253 57.135 11.328 2.156 23.075 3.25 34.915 3.25 7.465 0 14.97-.436 22.484-1.273 26 24.627 61.083 39.754 99.636 39.754 79.953 0 145-65.047 145-145 0-79.956-65.047-145.003-145-145.003zm110.056 107.433c-5.604-3.66-12.105-7.02-19.48-10.014-7.226-2.937-15.132-5.48-23.56-7.605-3.06-13.402-7.245-25.804-12.466-36.69-2.6-5.428-5.41-10.382-8.412-14.855 29.883 12.966 53.295 38.124 63.918 69.163zm-38.228 12.795c2.86.95 5.613 1.964 8.254 3.037 18.408 7.478 26.648 16.306 26.648 21.736s-8.24 14.26-26.648 21.736a136.553 136.553 0 0 1-8.254 3.036 264.235 264.235 0 0 0 1.152-24.77c0-8.397-.39-16.683-1.152-24.774zm-99.06-54.013c8.023-16.746 18.203-26.744 27.23-26.744 9.027 0 19.205 10 27.23 26.745 2.606 5.44 4.904 11.377 6.88 17.71-10.995-1.245-22.444-1.888-34.11-1.888-11.664 0-23.113.643-34.11 1.89 1.977-6.335 4.274-12.272 6.88-17.712zM151.49 313.73c5.602 3.66 12.104 7.02 19.478 10.015 7.226 2.934 15.133 5.476 23.563 7.604 3.058 13.403 7.245 25.804 12.465 36.692 2.6 5.426 5.413 10.38 8.413 14.854-29.883-12.97-53.293-38.127-63.918-69.167zm38.23-12.795a137.02 137.02 0 0 1-8.254-3.036c-18.407-7.48-26.647-16.307-26.647-21.736 0-5.432 8.24-14.26 26.646-21.736a137.02 137.02 0 0 1 8.253-3.037 265.26 265.26 0 0 0-1.15 24.774 264.24 264.24 0 0 0 1.15 24.77zm17.274-116.653c-5.22 10.89-9.407 23.29-12.464 36.69-8.43 2.13-16.337 4.672-23.563 7.605-7.373 2.994-13.876 6.354-19.478 10.014 10.623-31.038 34.034-56.194 63.916-69.162-3 4.472-5.812 9.426-8.412 14.854zm81.782 170.664c-8.023 16.746-18.203 26.74-27.23 26.74s-19.204-9.994-27.228-26.74c-2.608-5.44-4.905-11.38-6.882-17.712 10.996 1.246 22.444 1.89 34.11 1.89 11.664 0 23.115-.644 34.11-1.89-1.973 6.333-4.27 12.27-6.88 17.712zm13.262-46.676c-12.715 1.94-26.383 2.96-40.49 2.96-14.106 0-27.774-1.02-40.49-2.96-1.44-10.255-2.188-21.043-2.188-32.107 0-11.065.748-21.855 2.19-32.11 12.714-1.94 26.382-2.958 40.488-2.958 14.107 0 27.775 1.02 40.49 2.96 1.44 10.253 2.19 21.043 2.19 32.108 0 11.064-.75 21.853-2.19 32.107zm5.65 74.624c3-4.473 5.812-9.428 8.412-14.854 5.22-10.89 9.405-23.29 12.465-36.693 8.43-2.128 16.336-4.67 23.562-7.604 7.37-2.995 13.875-6.354 19.48-10.016-10.626 31.042-34.038 56.198-63.92 69.167z"/><path d="M173.966 115.304l-6.3 4.104c-.007.004-.016.007-.02.013a5.576 5.576 0 0 0-1.834 7.337 5.576 5.576 0 0 0 7.187 2.41l74.925-33.748-12.08 25.17a4.517 4.517 0 0 0 6.552 5.728l14.403-9.463c.41-.27.776-.608 1.08-1l40.243-51.683 52.642-34.71c19.897-13.512 16.565-21.988 15.07-24.264-1.158-1.767-3.58-4.043-8.525-4.87-5.02-.844-11.6-.063-20.117 2.387-2.844.818-4.447.938-6.146 1.063-5.97.446-9.967 1.26-28.946 13.73l-103.82 68.21L153.5 68.002a5.577 5.577 0 0 0-5.115.525l-6.784 4.456a5.583 5.583 0 0 0-.91 8.58l33.276 33.74z"/></g></svg>