<svg id="_64_2px" data-name="64 2px" xmlns="http://www.w3.org/2000/svg" width="54.01" height="43.88" viewBox="0 0 54.01 43.88"><defs><style>.cls-1{fill:#31aff5;fill-rule:evenodd}</style></defs><title>feature-4</title><path class="cls-1" d="M1349 617v-21h-2v21l-6-6-2 1 9 9 9-9-2-1zm22.8-23.42a10.17 10.17 0 0 0-6.23-3.13 11.27 11.27 0 0 0-5.16-7.35 10 10 0 0 0-8.1-.55c-4-4.91-9.07-6.6-14.09-4.62a13.46 13.46 0 0 0-8.32 13.11c-4.38 1.44-9.14 6.88-8.89 12 .26 5.39 4 10 10 10h4v-2h-4c-4.74 0-7.79-3.55-8-8s4.4-9.39 8.16-10.22l.81-.26s0-1.22-.06-1.42a11.36 11.36 0 0 1 7-11.29c4.31-1.7 8.76 0 12.21 4.54l.45.6.7-.27a8.32 8.32 0 0 1 7.13.18c2.18 1.21 3.68 3.55 4.34 6.76l.17.81h.82a8 8 0 0 1 5.6 2.56 8.15 8.15 0 0 1 2.64 6c-.13 4.79-3.73 10-9 10h-3v2h3c6.17-.28 10.85-6.41 11-12a10 10 0 0 0-3.18-7.45z" transform="translate(-1320.99 -577.12)" id="download"/></svg>