<svg id="_64_2px" data-name="64 2px" xmlns="http://www.w3.org/2000/svg" width="32" height="54" viewBox="0 0 32 54"><defs><style>.cls-1{fill:#31aff5;fill-rule:evenodd}</style></defs><title>feature-1</title><path class="cls-1" d="M1358.87 384h-21.75a5.12 5.12 0 0 0-5.12 5.12v43.75a5.12 5.12 0 0 0 5.12 5.12h21.75a5.12 5.12 0 0 0 5.12-5.12v-43.75a5.12 5.12 0 0 0-5.12-5.12zm3.12 48.88a3.13 3.13 0 0 1-3.12 3.12h-21.75a3.13 3.13 0 0 1-3.12-3.12V425h28v7.88zm0-9.88h-28v-28h28v28zm0-30h-28v-3.88a3.13 3.13 0 0 1 3.12-3.12h21.75a3.13 3.13 0 0 1 3.12 3.12V393zm-14 39a2 2 0 1 0-2-2 2 2 0 0 0 2.01 2z" transform="translate(-1332 -384)" id="iphone"/></svg>