<svg id="_64_2px" data-name="64 2px" xmlns="http://www.w3.org/2000/svg" width="52" height="48.02" viewBox="0 0 52 48.02"><defs><style>.cls-1{fill:#31aff5;fill-rule:evenodd}</style></defs><title>feature-cta-2</title><path class="cls-1" d="M1741 767h-1v-4h-32v4h-1c-5.26 0-9 1.71-9 7 0 3.86 2.31 9.93 5.86 11.41L1708 787a16 16 0 0 0 15 16v6h-8v2h18v-2h-8v-6a16 16 0 0 0 15-16l4.14-1.59c3.55-1.49 5.86-7.55 5.86-11.41 0-5.29-3.74-7-9-7zm-36.37 16.56c-2.45-1-4.63-6-4.63-9.56 0-2.2.06-5 7-5h1v16zM1738 787a14 14 0 1 1-28 0v-22h28v22zm5.37-3.44L1740 785v-16h1c6.94 0 7 2.8 7 5 0 3.55-2.18 8.53-4.63 9.56z" transform="translate(-1698 -762.98)" id="bowl"/></svg>