<svg id="_64_2px" data-name="64 2px" xmlns="http://www.w3.org/2000/svg" width="44" height="48" viewBox="0 0 44 48"><defs><style>.cls-1{fill:#31aff5;fill-rule:evenodd}</style></defs><title>feature-new-2</title><path class="cls-1" d="M1920.87 964.06c2.53-1.65 5.13-4.61 5.13-7.06a5.73 5.73 0 0 0-6-6c-3.16 0-6.64 4.71-8 7.37-1.36-2.66-4.84-7.37-8-7.37a5.73 5.73 0 0 0-6 6c0 2.46 2.47 5.35 5 7h-13v13h4v22h36v-22h4v-12.94h-13.13zM1900 957a3.75 3.75 0 0 1 4-4c2.05 0 5.54 4.53 6.56 7a9 9 0 0 1 .13 3.92 14.93 14.93 0 0 1-2 .15 5.17 5.17 0 0 1-1.93-.27c-2.47-1.03-6.76-4.75-6.76-6.8zm11 40h-15v-20h15v20zm0-22h-19v-9h19v9zm2.44-15c1-2.46 4.51-7 6.56-7a3.75 3.75 0 0 1 4 4c0 2.05-4.29 5.77-6.76 6.79a5.17 5.17 0 0 1-1.93.27 14.93 14.93 0 0 1-2-.15 9 9 0 0 1 .13-3.91zm14.56 37h-15v-20h15v20zm4-22h-19v-9h19v9z" transform="translate(-1890 -951)" id="gift"/></svg>