<svg id="Layer_1" data-name="Layer 1" xmlns="http://www.w3.org/2000/svg" width="117.92" height="33.12" viewBox="0 0 117.92 33.12"><defs><style>.cls-1{fill:#fff}</style></defs><title>logo</title><path class="cls-1" d="M196 359.49h-28v-28a.75.75 0 0 0-1.5 0v28h-2.1a.75.75 0 0 0 0 1.5h2.1v2.1a.75.75 0 1 0 1.5 0V361h28a.75.75 0 1 0 0-1.5zm0 0" transform="translate(-163.66 -330.72)"/><path class="cls-1" d="M172.05 358a2.55 2.55 0 0 0 2.07-4l4.34-5.27a2.54 2.54 0 0 0 2.66-.45l3.22 2a2.55 2.55 0 1 0 4.2-1.24l5.24-11.04a2.55 2.55 0 1 0-1.34-.67l-5.25 10.94h-.38a2.54 2.54 0 0 0-1.69.64l-3.22-2a2.55 2.55 0 1 0-4.6.77l-4.38 5.32a2.55 2.55 0 1 0-.87 4.94zm22.15-23.52a1.05 1.05 0 1 1-1.05 1.05 1.05 1.05 0 0 1 1.05-1.05zm-7.38 15.3a1.05 1.05 0 1 1-1.05 1.05 1.05 1.05 0 0 1 1.05-1.05zm-7.38-4.5a1.05 1.05 0 1 1-1.05 1.05 1.05 1.05 0 0 1 1.05-1.05zm-7.38 9.11a1.05 1.05 0 1 1-1.05 1.05 1.05 1.05 0 0 1 1.05-1.05zm0 0" transform="translate(-163.66 -330.72)"/><g><path class="cls-1" d="M217.85 352.36l-.63-2.41H213l-.65 2.41h-3.81l4.19-12.9h4.63l4.25 12.9h-3.8zm-1.35-5.26l-.56-2.1q-.19-.7-.47-1.82t-.36-1.6q-.08.45-.31 1.48t-1 4.05h2.73zM226.51 347.68v4.68H223v-12.85h4.21q5.24 0 5.24 3.8a3.79 3.79 0 0 1-2.18 3.45l3.74 5.6h-3.94l-2.72-4.68h-.88zm0-2.61h.65q1.82 0 1.82-1.61 0-1.33-1.78-1.33h-.69v2.94zM240.94 342.17a2.21 2.21 0 0 0-1.93 1 4.9 4.9 0 0 0-.69 2.8q0 3.71 2.82 3.71a5.78 5.78 0 0 0 1.65-.24 16.53 16.53 0 0 0 1.61-.57v2.94a8.9 8.9 0 0 1-3.64.71 5.76 5.76 0 0 1-4.46-1.69 7 7 0 0 1-1.55-4.88 7.78 7.78 0 0 1 .75-3.51 5.38 5.38 0 0 1 2.16-2.33 6.53 6.53 0 0 1 3.32-.81 9.14 9.14 0 0 1 4 .91l-1.09 2.79a12 12 0 0 0-1.42-.56 5 5 0 0 0-1.53-.27zM257.91 352.36h-3.49v-5.24h-4v5.24h-3.52v-12.85h3.49v4.76h4v-4.76h3.49v12.85zM268.32 352.36h-7.63v-12.85h7.63v2.79h-4.16v2H268v2.79h-3.85v2.43h4.16v2.83zM274 347.68v4.68h-3.47v-12.85h4.21q5.24 0 5.24 3.8a3.79 3.79 0 0 1-2.18 3.45l3.74 5.6h-3.94l-2.72-4.68H274zm0-2.61h.65q1.82 0 1.82-1.61 0-1.33-1.78-1.33H274v2.94z" transform="translate(-163.66 -330.72)"/></g></svg>