<svg id="Layer_1" data-name="Layer 1" xmlns="http://www.w3.org/2000/svg" width="116.43" height="33.12" viewBox="0 0 116.43 33.12"><defs><style>.cls-1{fill:#31aff5}.cls-2{fill:#091d25}</style></defs><title>logo-nav</title><path class="cls-1" d="M196 302.32h-28v-28a.75.75 0 0 0-1.5 0v28h-2.1a.75.75 0 0 0 0 1.5h2.1v2.1a.75.75 0 1 0 1.5 0v-2.1h28a.75.75 0 1 0 0-1.5zm0 0" transform="translate(-163.66 -273.55)"/><path class="cls-1" d="M172.05 300.82a2.55 2.55 0 0 0 2.07-4l4.34-5.27a2.54 2.54 0 0 0 2.66-.45l3.22 2a2.55 2.55 0 1 0 4.2-1.24l5.24-10.91a2.55 2.55 0 1 0-1.34-.67l-5.25 10.94h-.38a2.54 2.54 0 0 0-1.69.64l-3.22-2a2.55 2.55 0 1 0-4.6.77l-4.38 5.32a2.55 2.55 0 1 0-.87 4.94zm22.15-23.52a1.05 1.05 0 1 1-1.05 1.05 1.05 1.05 0 0 1 1.05-1.05zm-7.38 15.3a1.05 1.05 0 1 1-1.05 1.05 1.05 1.05 0 0 1 1.05-1.05zm-7.38-4.5a1.05 1.05 0 1 1-1.05 1.05 1.05 1.05 0 0 1 1.05-1.05zm-7.38 9.11a1.05 1.05 0 1 1-1.05 1.05 1.05 1.05 0 0 1 1.05-1.05zm0 0" transform="translate(-163.66 -273.55)"/><g><path class="cls-2" d="M218.06 295.19l-.93-3.06h-4.68l-.93 3.06h-2.94l4.54-12.9h3.33l4.55 12.9h-2.94zm-1.58-5.34q-1.29-4.16-1.45-4.7t-.23-.86q-.29 1.13-1.66 5.56h3.35zM225.34 290.26v4.93h-2.72v-12.85h3.74a6.41 6.41 0 0 1 3.88 1 3.8 3.8 0 0 1 .63 4.91 4.13 4.13 0 0 1-1.77 1.38q2.9 4.33 3.78 5.6h-3l-3.07-4.93h-1.45zm0-2.21h.88a3.36 3.36 0 0 0 1.91-.43 1.54 1.54 0 0 0 .62-1.35 1.41 1.41 0 0 0-.63-1.3 3.81 3.81 0 0 0-1.95-.39h-.83V288zM240 284.42a2.78 2.78 0 0 0-2.38 1.16 5.38 5.38 0 0 0-.84 3.22q0 4.3 3.23 4.3a10.2 10.2 0 0 0 3.28-.68v2.29a9.1 9.1 0 0 1-3.53.66 5.39 5.39 0 0 1-4.29-1.7 7.2 7.2 0 0 1-1.49-4.88 8 8 0 0 1 .73-3.51 5.27 5.27 0 0 1 2.1-2.31 6.2 6.2 0 0 1 3.2-.8 8.65 8.65 0 0 1 3.76.91l-.88 2.21a14.55 14.55 0 0 0-1.45-.6 4.33 4.33 0 0 0-1.44-.27zM256.49 295.19h-2.72v-5.55h-5.09v5.55H246v-12.85h2.72v5h5.09v-5h2.72v12.85zM267.14 295.19h-7.4v-12.85h7.4v2.23h-4.68v2.82h4.35v2.23h-4.35v3.31h4.68v2.25zM272.54 290.26v4.93h-2.72v-12.85h3.74a6.41 6.41 0 0 1 3.88 1 3.8 3.8 0 0 1 .63 4.91 4.13 4.13 0 0 1-1.77 1.38q2.9 4.33 3.78 5.6h-3l-3.08-4.97h-1.45zm0-2.21h.88a3.36 3.36 0 0 0 1.91-.43 1.54 1.54 0 0 0 .62-1.35 1.41 1.41 0 0 0-.63-1.3 3.81 3.81 0 0 0-1.95-.39h-.83V288z" transform="translate(-163.66 -273.55)"/></g></svg>