<svg id="Layer_1" data-name="Layer 1" xmlns="http://www.w3.org/2000/svg" width="1006" height="333.11" viewBox="0 0 1006 333.11"><defs><style>.cls-1{fill:none}.cls-2{stroke:#a6a6a6;stroke-miterlimit:10;stroke-width:6px}.cls-3{clip-path:url(#clip-path)}.cls-4{fill:url(#linear-gradient)}.cls-5{fill:url(#linear-gradient-2)}.cls-6{fill:url(#linear-gradient-3)}.cls-7{fill:url(#linear-gradient-4)}.cls-8{fill:#f9f9f9}.cls-9{fill:#f9f9fa}</style><clipPath id="clip-path" transform="translate(-133.44 -16.22)"><path class="cls-1" d="M353.16 163.21l-45.09-26L221.09 87c-4.83-2.79-9.64-1.1-9.64 4.73v204.6c0 4.37 3.44 6.25 7.63 3.83l89-51.38 45.09-26 43.34-25c5.09-2.94 4.6-7 .31-9.28s-43.66-25.29-43.66-25.29z"/></clipPath><linearGradient id="linear-gradient" x1="22.95" y1="794.3" x2="22.95" y2="775.84" gradientTransform="matrix(12 0 0 -12 -141.58 9597.59)" gradientUnits="userSpaceOnUse"><stop offset="0" stop-color="#257cb0"/><stop offset=".29" stop-color="#4a93b5"/><stop offset=".77" stop-color="#78bcbb"/><stop offset="1" stop-color="#89cfbd"/></linearGradient><linearGradient id="linear-gradient-2" x1="18.3" y1="789.72" x2="30.11" y2="789.72" gradientTransform="matrix(12 0 0 -12 -141.58 9597.59)" gradientUnits="userSpaceOnUse"><stop offset="0" stop-color="#52c1ad"/><stop offset="1" stop-color="#dee89a"/></linearGradient><linearGradient id="linear-gradient-3" x1="24.2" y1="785.07" x2="24.2" y2="775.77" gradientTransform="matrix(12 0 0 -12 -141.58 9597.59)" gradientUnits="userSpaceOnUse"><stop offset="0" stop-color="#ec413d"/><stop offset=".17" stop-color="#da4452"/><stop offset=".57" stop-color="#b0487a"/><stop offset=".86" stop-color="#954a92"/><stop offset="1" stop-color="#8a4a9d"/></linearGradient><linearGradient id="linear-gradient-4" x1="31" y1="787.55" x2="31" y2="782.59" gradientTransform="matrix(12 0 0 -12 -141.58 9597.59)" gradientUnits="userSpaceOnUse"><stop offset="0" stop-color="#f58879"/><stop offset=".12" stop-color="#f69079"/><stop offset=".71" stop-color="#fcb877"/><stop offset="1" stop-color="#fec874"/></linearGradient></defs><title>play-store-btn</title><path class="cls-2" d="M1136.44 302.12a44.21 44.21 0 0 1-44.2 44.21H180.65a44.21 44.21 0 0 1-44.21-44.21V63.43a44.21 44.21 0 0 1 44.21-44.21h911.6a44.2 44.2 0 0 1 44.2 44.21v238.7z" transform="translate(-133.44 -16.22)"/><g id="PLAY"><path class="cls-3 cls-4" d="M78.01 65.98V287.5l111.7-110.76L78.01 65.98z"/><path class="cls-3 cls-5" d="M219.71 146.99l-45.09-26.04-96.61-55.78v.81l111.7 110.76 30-29.75z"/><path class="cls-3 cls-6" d="M78.01 287.5v.8l96.61-55.78 45.09-26.04-30-29.74L78.01 287.5z"/><path class="cls-3 cls-7" d="M219.71 146.99l-30 29.75 30 29.74 51.53-29.74-51.53-29.75z"/></g><path class="cls-8" d="M914.69 236.26a27.88 27.88 0 0 1-11.49-2.32 21.66 21.66 0 0 1-8.73-7.14h-.7a86.59 86.59 0 0 1 .7 10.7V264h-9.75v-93.34h7.93l1.35 8.82h.47a22.68 22.68 0 0 1 8.76-7.64 26.61 26.61 0 0 1 11.46-2.35q12.82 0 19.78 8.76t7 24.57q0 15.87-7.08 24.66t-19.7 8.78zm-1.41-58.49q-9.87 0-14.28 5.47t-4.53 17.4v2.17q0 13.58 4.53 19.43t14.52 5.85a15.1 15.1 0 0 0 13.08-6.76q4.73-6.76 4.73-18.64 0-12-4.73-18.49t-13.32-6.42zM964 235.08h-9.76v-91.46H964v91.46zM1020.13 235.08l-1.94-9.17h-.47q-4.82 6.06-9.61 8.2a29.24 29.24 0 0 1-12 2.15q-9.58 0-15-4.94t-5.44-14q0-19.51 31.21-20.46l10.94-.35v-4q0-7.58-3.27-11.2t-10.43-3.62q-8.06 0-18.22 4.94l-3-7.46a45.84 45.84 0 0 1 10.44-4.05 45.18 45.18 0 0 1 11.37-1.47q11.52 0 17.08 5.11t5.55 16.4v44h-7.23zm-22-6.87q9.11 0 14.31-5t5.2-14v-5.81l-9.76.41q-11.64.42-16.78 3.62t-5.14 10q0 5.29 3.2 8t8.92 2.78zM1033 170.66h10.46l14.11 36.74q4.64 12.58 5.76 18.16h.47q.77-3 3.2-10.26t16-44.64h10.47L1065.76 244q-4.11 10.87-9.61 15.44a20.44 20.44 0 0 1-13.48 4.55 39.39 39.39 0 0 1-8.82-1v-7.82a34.09 34.09 0 0 0 7.23.71q10.05 0 14.34-11.29l3.58-9.17zM733.94 176.65c3.1 2.56 9.56 7.95 9.56 18.19 0 10-5.66 14.69-11.32 19.13-1.75 1.75-3.77 3.64-3.77 6.61s2 4.58 3.51 5.79l4.85 3.77c5.93 5 11.31 9.57 11.31 18.87 0 12.67-12.26 25.46-35.43 25.46-19.54 0-29-9.29-29-19.27 0-4.85 2.41-11.72 10.38-16.44 8.35-5.12 19.67-5.79 25.74-6.2-1.89-2.42-4-5-4-9.15a12.18 12.18 0 0 1 1.35-5.26c-1.49.14-3 .27-4.32.27-14.28 0-22.36-10.65-22.36-21.15a24.23 24.23 0 0 1 8.56-18.06c7.68-6.33 16.85-7.41 24.13-7.41h27.75l-8.62 4.85h-8.35zm-9.57 59.83a20.91 20.91 0 0 0-3.09-.14 53.9 53.9 0 0 0-14.15 2.17c-3 1.07-11.59 4.3-11.59 13.88s9.3 16.44 23.72 16.44c12.93 0 19.81-6.21 19.81-14.56 0-6.89-4.45-10.51-14.7-17.79zm3.91-25.61c3.09-3.1 3.36-7.41 3.36-9.84 0-9.7-5.79-24.79-17-24.79a12.58 12.58 0 0 0-9.43 4.45c-2.29 2.83-3 6.46-3 10 0 9 5.26 24 16.85 24a13.79 13.79 0 0 0 9.22-3.82zM649.11 234.32c-21.39 0-32.82-16.68-32.82-31.75 0-17.63 14.39-32.69 34.85-32.69 19.77 0 32.14 15.46 32.14 31.75 0 15.87-12.28 32.69-34.17 32.69zm16.81-10.9c3.23-4.31 4-9.69 4-14.94 0-11.84-5.65-34.44-22.33-34.44a18.73 18.73 0 0 0-12.1 4.58c-5.25 4.7-6.19 10.62-6.19 16.42 0 13.31 6.59 35.23 22.87 35.23a17.19 17.19 0 0 0 13.76-6.84zM576.2 234.32c-21.39 0-32.83-16.68-32.83-31.75 0-17.63 14.4-32.69 34.85-32.69 19.77 0 32.15 15.46 32.15 31.75 0 15.87-12.24 32.69-34.17 32.69zm16.8-10.89c3.23-4.31 4-9.69 4-14.94 0-11.84-5.65-34.44-22.34-34.44a18.73 18.73 0 0 0-12.1 4.58c-5.25 4.7-6.19 10.62-6.19 16.42 0 13.31 6.59 35.23 22.87 35.23a17.2 17.2 0 0 0 13.76-6.85zM533.09 232.21l-19.34 4.46c-7.85 1.22-14.88 2.29-22.31 2.29-37.33 0-51.53-27.46-51.53-49 0-26.24 20.15-50.57 54.64-50.57a77.94 77.94 0 0 1 20.69 2.84 52.78 52.78 0 0 1 17.85 8.39l-11.23 10.68-4.73 1.08 3.38-5.41c-4.6-4.46-13-12.71-28.94-12.71-21.37 0-37.47 16.24-37.47 39.9 0 25.42 18.4 49.36 47.88 49.36a40.28 40.28 0 0 0 17.18-3.38v-21.73l-20.42 1.08 10.82-5.82h28.68l-3.53 3.33a3.16 3.16 0 0 0-1.35 2.16c-.14 1.22-.27 5.15-.27 6.5v16.51z" transform="translate(-133.44 -16.22)"/><path class="cls-8" d="M776.69 228.32c-4.47-.41-5.4-1.21-5.4-6.49v-76.56c0-.29 0-.59.07-.87.55-4.73 1.9-5.54 6.09-8h-19.34L748 141.29h10.3v83.51c0 2.7-.53 3.11-3.65 7.16h23.94l5-3c-2.29-.24-4.59-.37-6.9-.64zM831.73 229.56c-1.47.81-3 1.75-4.42 2.42a31.3 31.3 0 0 1-13 2.55c-4.29 0-11-.28-17.87-5.24-9.53-6.72-13.69-18.27-13.69-28.34 0-20.82 16.92-31 30.76-31a26.1 26.1 0 0 1 13.84 3.76 22.24 22.24 0 0 1 9.34 13.29l-31.56 12.76-10.34.81c3.35 17.06 14.9 27 27.67 27 6.85 0 11.82-2.41 16.39-4.69zm-12.62-40c2.55-.94 3.89-1.75 3.89-3.62 0-5.37-6-11.55-13.3-11.55-5.38 0-15.45 4.17-15.45 18.67 0 2.28.27 4.7.41 7.13zM844.69 170.84v8.86h-1.08v-8.86h-2.93v-.92h6.94v.92h-2.93zM856.77 179.71v-8.94l-2.77 8.94h-.84l-2.75-8.94v8.94h-1v-9.78h1.68l2.49 7.91 2.45-7.91h1.7v9.78h-1z" transform="translate(-133.44 -16.22)"/><path class="cls-9" d="M466.77 113.1H460q0-1.39-1.91-7.86h-9.7q-2 6.36-2 7.86h-6.32q0-.82 4.9-13.44t4.9-13.9h7.94q0 1.2 4.44 13.7t4.52 13.64zm-9.7-11.87q-3.59-10.84-3.59-11.72h-.34q0 .82-3.72 11.72h7.64zM493.85 113.1h-5.19q0-.86-5.78-9.09-6-8.67-6.89-11.87h-.34a74 74 0 0 1 .53 8.32q0 5.19.29 12.64h-5.17q.31-6.51.31-14.3t-.31-13h6.24q0 1.11 5.19 8.88 5.52 8.25 6.34 11.19h.31a79.25 79.25 0 0 1-.5-8.4q0-5.69-.29-11.68h5.25q-.3 5.21-.29 13t.3 14.31zM524.29 98.48a15.5 15.5 0 0 1-3.82 10.42q-3.82 4.45-10.71 4.45-3.11 0-8.57-.25.27-6.34.27-14.3 0-7.64-.27-13h3.68q.9 0 2.69-.06l2.33-.06q7.58 0 11 3.78a13.07 13.07 0 0 1 3.4 9.02zm-5.73.9a10.13 10.13 0 0 0-2.35-6.8q-2.35-2.76-7.18-2.76a21.89 21.89 0 0 0-2.48.19q.21 4.2.21 8.78 0 5 .21 10a13.9 13.9 0 0 0 2.73.27q4.52 0 6.69-2.81a10.82 10.82 0 0 0 2.17-6.87zM552.36 113.1h-6.22q-2.44-7.43-3.74-9.18a4.9 4.9 0 0 0-4.2-1.74h-2.33q0 5.4.19 10.9h-5.84q.27-6.34.27-14.3 0-7.64-.27-13h3.63l2.64-.06q2-.06 3.71-.06 9.64 0 9.64 6.59 0 5.23-5.5 7.29v.31a6.56 6.56 0 0 1 3.72 3.31 73.25 73.25 0 0 1 4.3 9.94zm-7.88-19.32q0-4.18-5.38-4.18a18.45 18.45 0 0 0-3.49.29q.23 3.26.23 8.49h2q6.64.04 6.64-4.61zM582.46 98.92a15.08 15.08 0 0 1-3.95 10.69 12.82 12.82 0 0 1-9.77 4.24 12.34 12.34 0 0 1-9.28-3.9 13.72 13.72 0 0 1-3.74-9.9 15.08 15.08 0 0 1 3.95-10.69 12.81 12.81 0 0 1 9.77-4.24 12.36 12.36 0 0 1 9.28 3.88 13.71 13.71 0 0 1 3.74 9.92zm-5.79.61a10.84 10.84 0 0 0-2.25-7.12 6.92 6.92 0 0 0-5.54-2.73 6.4 6.4 0 0 0-5.21 2.75 11 11 0 0 0-2.14 7 10.82 10.82 0 0 0 2.26 7.11 6.91 6.91 0 0 0 5.53 2.74 6.4 6.4 0 0 0 5.21-2.76 11 11 0 0 0 2.14-6.99zM594.34 113.1h-5.94q.27-6.51.27-14.3t-.27-13h5.94q-.27 5.29-.27 13-.01 7.91.27 14.3zM624.78 98.48a15.5 15.5 0 0 1-3.78 10.41q-3.82 4.45-10.71 4.45-3.11 0-8.57-.25.27-6.34.27-14.3 0-7.64-.27-13h3.68q.9 0 2.69-.06l2.33-.06q7.58 0 11 3.78a13.07 13.07 0 0 1 3.36 9.03zm-5.73.9a10.13 10.13 0 0 0-2.35-6.8q-2.35-2.76-7.18-2.76A21.89 21.89 0 0 0 607 90q.21 4.2.21 8.78 0 5 .21 10a13.9 13.9 0 0 0 2.73.27q4.52 0 6.69-2.81a10.82 10.82 0 0 0 2.16-6.86zM665.16 113.1h-6.72q0-1.39-1.91-7.86h-9.7q-2 6.36-2 7.86h-6.32q0-.82 4.9-13.44t4.9-13.9h7.94q0 1.2 4.44 13.7t4.47 13.64zm-9.7-11.87q-3.59-10.84-3.59-11.72h-.34q0 .82-3.71 11.72h7.64zM689.66 92.91q0 5-3.73 7.41a16.59 16.59 0 0 1-9.15 2.4h-1.41q0 4 .23 10.42h-5.9q.3-6.14.3-14.35 0-7.56-.27-13h3.65q.78 0 3-.06t3.82-.06a12 12 0 0 1 6.74 1.81 6.11 6.11 0 0 1 2.72 5.43zm-5.42 1.16q0-4.49-6-4.49a17 17 0 0 0-3.15.31q.23 4 .23 9h1.22q7.7.03 7.7-4.82zM714.85 92.91q0 5-3.73 7.41a16.59 16.59 0 0 1-9.15 2.4h-1.41q0 4 .23 10.42h-5.9q.27-6.07.27-14.3 0-7.56-.27-13h3.65q.78 0 3-.06t3.82-.06a12 12 0 0 1 6.74 1.81 6.11 6.11 0 0 1 2.75 5.38zm-5.42 1.16q0-4.49-6-4.49a17 17 0 0 0-3.15.31q.23 4 .23 9h1.22q7.7.03 7.7-4.82zM756 98.92a15.08 15.08 0 0 1-3.95 10.69 12.81 12.81 0 0 1-9.77 4.24A12.34 12.34 0 0 1 733 110a13.73 13.73 0 0 1-3.74-9.9 15.08 15.08 0 0 1 3.95-10.69 12.81 12.81 0 0 1 9.79-4.29 12.36 12.36 0 0 1 9.3 3.88 13.72 13.72 0 0 1 3.7 9.92zm-5.8.61a10.85 10.85 0 0 0-2.2-7.12 6.92 6.92 0 0 0-5.54-2.73 6.4 6.4 0 0 0-5.21 2.75 11 11 0 0 0-2.14 7 10.82 10.82 0 0 0 2.26 7.11 6.91 6.91 0 0 0 5.53 2.74 6.4 6.4 0 0 0 5.21-2.76 11 11 0 0 0 2.13-6.99zM784.5 113.1h-5.19q0-.86-5.78-9.09-6-8.67-6.89-11.87h-.34a74 74 0 0 1 .53 8.32q0 5.19.29 12.64H762q.31-6.51.31-14.3t-.31-13h6.24q0 1.11 5.19 8.88 5.53 8.25 6.34 11.19h.23a79.25 79.25 0 0 1-.5-8.4q0-5.69-.29-11.68h5.25q-.3 5.21-.29 13t.33 14.31z" transform="translate(-133.44 -16.22)"/></svg>