<svg id="Layer_1" data-name="Layer 1" xmlns="http://www.w3.org/2000/svg" width="200" height="140.64" viewBox="0 0 200 140.64"><defs><style>.cls-1{fill:#fff}.cls-2{fill:#ff4f19}.cls-3{fill:#5c546a}.cls-4{fill:#b9bbc1}.cls-5{fill:#ffd200}.cls-6{fill:#53dcff}.cls-7{fill:#e9001e}.cls-8{fill:#8b8996}</style></defs><title>step-4</title><path class="cls-1" d="M18.75 12.5h162.5v100H18.75z"/><path class="cls-2" d="M18.75 12.5h162.5v25H18.75z"/><path class="cls-3" d="M876.89 373.81H718.18a14.39 14.39 0 0 0-14.4 14.36v113.76a3.12 3.12 0 0 0 3.13 3.13h181.25a3.12 3.12 0 0 0 3.13-3.12V388.17a14.4 14.4 0 0 0-14.4-14.36zm-160.6 109.37v-93.75a3.13 3.13 0 0 1 3.13-3.12h156.24a3.13 3.13 0 0 1 3.13 3.13v93.75a3.13 3.13 0 0 1-3.12 3.13H719.41a3.13 3.13 0 0 1-3.12-3.14z" transform="translate(-697.54 -373.81)"/><path class="cls-4" d="M894.41 498.81H700.66a3.12 3.12 0 0 0-3.12 3.13 12.53 12.53 0 0 0 12.46 12.5h175a12.53 12.53 0 0 0 12.51-12.51 3.12 3.12 0 0 0-3.1-3.12z" transform="translate(-697.54 -373.81)"/><path class="cls-5" d="M753.79 401.93h-21.88a3.13 3.13 0 0 1 0-6.25h21.88a3.13 3.13 0 0 1 0 6.25z" transform="translate(-697.54 -373.81)"/><path class="cls-1" d="M810 401.93h-3.12a3.13 3.13 0 0 1 0-6.25H810a3.13 3.13 0 0 1 0 6.25zM825.66 401.93h-3.12a3.13 3.13 0 0 1 0-6.25h3.13a3.13 3.13 0 0 1-.01 6.25zM841.29 401.93h-3.12a3.13 3.13 0 0 1 0-6.25h3.13a3.13 3.13 0 0 1-.01 6.25zM856.91 401.93h-3.12a3.13 3.13 0 0 1 0-6.25h3.13a3.13 3.13 0 0 1-.01 6.25z" transform="translate(-697.54 -373.81)"/><path class="cls-6" d="M785 476.93h-53.09a3.13 3.13 0 0 1-3.12-3.12v-50a3.13 3.13 0 0 1 3.13-3.12H785a3.13 3.13 0 0 1 3.13 3.13v50a3.13 3.13 0 0 1-3.13 3.11z" transform="translate(-697.54 -373.81)"/><path class="cls-2" d="M860 426.93h-59.34a3.13 3.13 0 0 1 0-6.25H860a3.13 3.13 0 0 1 0 6.25z" transform="translate(-697.54 -373.81)"/><path class="cls-4" d="M825.66 451.93h-25a3.13 3.13 0 0 1 0-6.25h25a3.12 3.12 0 0 1 0 6.25zM825.66 464.43h-25a3.13 3.13 0 0 1 0-6.25h25a3.12 3.12 0 0 1 0 6.25zM825.66 476.93h-25a3.13 3.13 0 0 1 0-6.25h25a3.12 3.12 0 0 1 0 6.25zM863.16 451.93h-25a3.13 3.13 0 0 1 0-6.25h25a3.12 3.12 0 0 1 0 6.25zM863.16 464.43h-25a3.13 3.13 0 0 1 0-6.25h25a3.12 3.12 0 0 1 0 6.25zM863.16 476.93h-25a3.13 3.13 0 0 1 0-6.25h25a3.12 3.12 0 0 1 0 6.25z" transform="translate(-697.54 -373.81)"/><path class="cls-7" d="M841.29 439.43h-40.63a3.13 3.13 0 0 1 0-6.25h40.63a3.13 3.13 0 0 1 0 6.25z" transform="translate(-697.54 -373.81)"/><path class="cls-8" d="M785 505.06h25a6.25 6.25 0 0 0 6.25-6.25h-37.5a6.25 6.25 0 0 0 6.25 6.25z" transform="translate(-697.54 -373.81)"/></svg>