<svg id="Layer_1" data-name="Layer 1" xmlns="http://www.w3.org/2000/svg" width="109" height="109" viewBox="0 0 109 109"><defs><style>.cls-1{fill:#31aff5}</style></defs><title>support-icon</title><g id="Expanded"><path class="cls-1" d="M829.55 342.1a2.24 2.24 0 0 1-.87-.17 2.27 2.27 0 0 1-1.4-2.1v-15.9h-6.81a2.27 2.27 0 0 1 0-4.54h9.08a2.27 2.27 0 0 1 2.27 2.27v12.68l14.29-14.29a2.26 2.26 0 0 1 1.61-.67h13.63v-36.32h-63.59V299a2.27 2.27 0 1 1-4.54 0v-18.21a2.27 2.27 0 0 1 2.27-2.27h68.13a2.27 2.27 0 0 1 2.27 2.27v40.88a2.27 2.27 0 0 1-2.27 2.27h-15l-17.5 17.5a2.27 2.27 0 0 1-1.57.66zM829.55 387.52h-72.67v-9a13.05 13.05 0 0 1 8.65-12.27l16.47-5.91v-8.15h4.54v11.35l-19.47 7a8.51 8.51 0 0 0-5.63 8V383H825v-4.49a8.51 8.51 0 0 0-5.63-8l-19.47-7v-12h4.54v8.77l16.45 5.88a13.05 13.05 0 0 1 8.64 12.27v9z" transform="translate(-756.88 -278.52)"/><path class="cls-1" d="M792.77 357c-11.14 0-20.2-10.67-20.2-23.79s9.06-23.78 20.2-23.78S813 320.14 813 333.25 803.9 357 792.77 357zm0-43c-8.63 0-15.66 8.63-15.66 19.24s7 19.25 15.66 19.25 15.66-8.63 15.66-19.25S801.4 314 792.77 314z" transform="translate(-756.88 -278.52)"/><path class="cls-1" d="M805.87 334c-4.26 0-7.65-1.81-10.53-5.62a20.39 20.39 0 0 1-13.34 5.35 16.61 16.61 0 0 1-8-1.93l2.11-4a12.06 12.06 0 0 0 5.89 1.41c4.46 0 9.93-2.72 11.49-5.7l1.92-3.68 2.06 3.61c3 5.21 6 6.78 11 5.82a7.27 7.27 0 0 1 1.41-.1 3.7 3.7 0 0 0 .47 0l.55 4.51a7.72 7.72 0 0 1-1.07 0 2.18 2.18 0 0 0-.51 0 18.35 18.35 0 0 1-3.45.33zM840.9 301.22a2.27 2.27 0 1 0 2.27 2.27 2.27 2.27 0 0 0-2.27-2.27zM829.55 301.22a2.27 2.27 0 1 0 2.27 2.27 2.27 2.27 0 0 0-2.27-2.27zM818.19 301.22a2.27 2.27 0 1 0 2.27 2.27 2.27 2.27 0 0 0-2.27-2.27z" transform="translate(-756.88 -278.52)"/></g></svg>